<?xml version="1.0" encoding="UTF-8"?>
<svg width="149px" height="86px" viewBox="0 0 149 86" version="1.1" xmlns="http://www.w3.org/2000/svg" xmlns:xlink="http://www.w3.org/1999/xlink">
    <title>7A398EB2-ACF8-438E-AA4C-9B3F2540DD14</title>
    <g id="Page-1" stroke="none" stroke-width="1" fill="none" fill-rule="evenodd">
        <g id="Giving-Opportunities---Donation-form-country-selection-popup" transform="translate(-1010.000000, -432.000000)">
            <g id="Group-14" transform="translate(512.026066, 297.000000)">
                <g id="Group-12" transform="translate(0.000000, 122.000000)">
                    <g id="Canada-flag" transform="translate(498.000000, 13.000000)">
                        <polygon id="Fill-25" fill="#EA0020" points="0 86 35 86 35 0 0 0"></polygon>
                        <polygon id="Fill-26" fill="#EA0020" points="113 86 148 86 148 0 113 0"></polygon>
                        <polygon id="Fill-27" fill="#FFFFFF" points="35 86 113 86 113 0 35 0"></polygon>
                        <path d="M73.5066397,11 L68.3498387,20.954791 C67.7655488,22.0374075 66.7209093,21.9229846 65.6674169,21.3288658 L61.9359292,19.3220644 L64.7201591,34.6195239 C65.3044489,37.4184837 63.427639,37.4184837 62.5025133,36.2126425 L55.9912221,28.6607321 L54.9333033,32.4894979 C54.8137895,32.9867974 54.2781904,33.5237047 53.4725786,33.3960792 L45.2394028,31.5961192 L47.3995048,39.7377475 C47.8731338,41.5553111 48.2228224,42.3078616 46.9347288,42.7875575 L44,44.2134427 L58.1778828,56.139828 C58.7311876,56.5931186 59.027759,57.3940788 58.81529,58.1334267 L57.5758872,62.3538708 C62.4538225,61.7729546 66.8359967,61.2404481 71.7050792,60.655131 C72.1344437,60.655131 72.8603796,61.0380076 72.8603796,61.5529106 L72.2096932,77 L74.5866907,77 L74.206017,61.5881176 C74.206017,61.0864173 74.8655563,60.655131 75.286068,60.655131 C80.1728562,61.2404481 84.5461775,61.7729546 89.4285393,62.3538708 L88.1758572,58.1334267 C87.9855203,57.3940788 88.2732388,56.5931186 88.8265436,56.139828 L103,44.2134427 L100.065271,42.7875575 C98.7727511,42.3078616 99.1357191,41.5553111 99.6004952,39.7377475 L101.765024,31.5961192 L93.5274214,33.3960792 C92.7218096,33.5237047 92.190637,32.9867974 92.0666967,32.4894979 L91.0132043,28.6607321 L84.4974867,36.2126425 C83.572361,37.4184837 81.6999775,37.4184837 82.2842674,34.6195239 L85.0596444,19.3220644 L81.341436,21.3288658 C80.2835171,21.9229846 79.2344512,22.0374075 78.6590142,20.954791 L73.5066397,11 Z" id="Fill-28" fill="#EA0020"></path>
                    </g>
                </g>
            </g>
        </g>
    </g>
</svg>