<?xml version="1.0" encoding="UTF-8"?>
<svg width="49px" height="49px" viewBox="0 0 49 49" version="1.1" xmlns="http://www.w3.org/2000/svg" xmlns:xlink="http://www.w3.org/1999/xlink">
    <title>Icons / facebook</title>
    <g id="Page-1" stroke="none" stroke-width="1" fill="none" fill-rule="evenodd">
        <g id="Giving-Opportunities---Stories-detail-page-(-Opt-1-)" transform="translate(-255.000000, -3182.000000)" fill="#8C191C" fill-rule="nonzero">
            <g id="Group-2" transform="translate(0.000000, 2758.000000)">
                <g id="Group-16" transform="translate(0.000000, 48.000000)">
                    <g id="Icons-/-facebook" transform="translate(255.990000, 376.989000)">
                        <path d="M24,0 C10.7659347,0 0,10.7663631 0,24 C0,37.2340653 10.7659347,48.000857 24,48.000857 C37.2332084,48.000857 48,37.2340653 48,24 C48,10.7663631 37.2332084,0 24,0 L24,0 Z M30.7830745,15.1507231 C30.7830745,15.3873743 30.5912307,15.579218 30.3545795,15.579218 L27.6263524,15.580932 C25.8262453,15.580932 25.4971612,16.2819497 25.4971612,17.6625603 L25.4971612,20.5266202 L30.1763257,20.5266202 C30.2993037,20.5266202 30.4167113,20.5797536 30.4976968,20.6723085 C30.5786824,20.7648634 30.6163899,20.8878415 30.6013926,21.0099625 L29.935083,26.1660418 C29.907501,26.3797537 29.7255005,26.539738 29.5100161,26.5396893 L25.4971612,26.5396893 L25.4971612,39.3426888 C25.4971612,39.57934 25.3053175,39.7711837 25.0686663,39.7711837 L19.7450455,39.7711837 C19.5083943,39.7711837 19.3165506,39.57934 19.3165506,39.3426888 L19.3165506,26.5396893 L15.2908409,26.5396893 C15.0541897,26.5396893 14.862346,26.3478456 14.862346,26.1111944 L14.862346,20.9551152 C14.862346,20.718464 15.0541897,20.5266202 15.2908409,20.5266202 L19.3165506,20.5266202 L19.3165506,17.1522228 C19.3165506,12.6830209 22.0212105,9.90723085 26.3760043,9.90723085 C28.2480986,9.90723085 29.9025174,10.0464917 30.4107124,10.1137654 C30.6237523,10.1419162 30.7830745,10.323512 30.7830745,10.5384039 L30.7830745,15.1507231 L30.7830745,15.1507231 Z" id="Shape"></path>
                    </g>
                </g>
            </g>
        </g>
    </g>
</svg>