<?xml version="1.0" encoding="UTF-8"?>
<svg width="149px" height="86px" viewBox="0 0 149 86" version="1.1" xmlns="http://www.w3.org/2000/svg" xmlns:xlink="http://www.w3.org/1999/xlink">
    <title>B59C37AD-293D-4AB5-8C39-41F2BD9000D6</title>
    <g id="Page-1" stroke="none" stroke-width="1" fill="none" fill-rule="evenodd">
        <g id="Giving-Opportunities---Donation-form-country-selection-popup" transform="translate(-512.000000, -432.000000)">
            <g id="Group-14" transform="translate(512.026066, 297.000000)">
                <g id="Group-12" transform="translate(0.000000, 122.000000)">
                    <g id="India-Flag" transform="translate(0.000000, 13.000000)">
                        <polygon id="Fill-1" fill="#FFFFFF" points="0 86 148 86 148 0 0 0"></polygon>
                        <polygon id="Fill-2" fill="#F0953E" points="0 29 148 29 148 0 0 0"></polygon>
                        <polygon id="Fill-3" fill="#3B8916" points="0 86 148 86 148 57 0 57"></polygon>
                        <g id="Group-10" transform="translate(62.000000, 30.000000)">
                            <path d="M12.9933617,1.26213592 L12.6658723,7.80309998 L13.0199149,11.518651 L13.3474043,7.80309998 L13.0199149,1.26213592 C13.3651064,1.26213592 13.6925957,1.27985011 14.0200851,1.31527849 C14.0200851,1.33299268 14.0068085,1.33299268 14.0068085,1.35070686 C14.0068085,1.66070516 14.2457872,1.91756089 14.5422979,1.91756089 C14.8166809,1.91756089 15.042383,1.69613354 15.0689362,1.43484926 C15.3964255,1.50570601 15.7062128,1.55442003 16.0292766,1.66070516 L14.0200851,7.88724238 L13.3828085,11.5717936 L14.6794894,8.04224153 L16.0602553,1.66070516 C16.3744681,1.76256174 16.6842553,1.85113269 16.9940426,1.97070346 C16.9763404,2.02384602 16.9542128,2.09027423 16.9542128,2.16113098 C16.9542128,2.45784364 17.1931915,2.69698518 17.4985532,2.69698518 C17.7021277,2.69698518 17.9101277,2.55970022 17.9897872,2.3692727 C18.2818723,2.50655766 18.5695319,2.6615568 18.861617,2.83427014 L15.3079149,8.3035258 L13.7368511,11.7267927 L15.9053617,8.66666667 L18.8881702,2.85198433 C19.1581277,3.01141203 19.4325106,3.18412536 19.7113191,3.3568387 C19.6316596,3.45869528 19.5874043,3.56498041 19.5874043,3.70226537 C19.5874043,3.99454948 19.8308085,4.23811957 20.1317447,4.23811957 C20.3043404,4.23811957 20.459234,4.16726282 20.5565957,4.01226367 C20.8177021,4.23811957 21.0566809,4.46397547 21.282383,4.68540283 L16.4408511,9.06523591 L14.0466383,11.9526486 L16.9276596,9.56566173 L21.3089362,4.70311702 C21.5346383,4.94668711 21.7559149,5.17254301 21.9639149,5.42939874 C21.8355745,5.53568387 21.773617,5.69068302 21.773617,5.84568217 C21.773617,6.14239482 22.0170213,6.38153637 22.3046809,6.38153637 C22.4330213,6.38153637 22.5259574,6.34610799 22.6233191,6.27967978 C22.8224681,6.5542497 22.9950638,6.83324817 23.1499574,7.10781809 L17.339234,10.0838017 L14.2811915,12.2626469 L17.68,10.7082269 L23.1676596,7.12553228 C23.3491064,7.43995912 23.4951489,7.76767161 23.6411915,8.04224153 C23.4597447,8.13081247 23.3137021,8.33895418 23.3137021,8.56038154 C23.3137021,8.85709419 23.5571064,9.10066428 23.8403404,9.10066428 C23.9288511,9.10066428 23.986383,9.08295009 24.0483404,9.04752172 C24.1501277,9.35752001 24.2474894,9.65423267 24.3271489,9.96423097 L17.9366809,11.3149378 L14.4360851,12.6125021 L18.1181277,11.988077 L24.3404255,9.99965934 C24.4200851,10.2742293 24.4997447,10.6196559 24.5572766,10.9340828 C24.2917447,10.9650826 24.0925957,11.1732243 24.0925957,11.469937 C24.0925957,11.7622211 24.3404255,12.0057912 24.6369362,12.0057912 L24.6900426,12.0057912 C24.7210213,12.3157895 24.7210213,12.6612161 24.7210213,12.975643 L18.2066383,12.6612161 L14.4714894,12.9889286 L18.2066383,13.3520695 L24.7210213,13.0066428 C24.7210213,13.3520695 24.7210213,13.6842105 24.6900426,13.9942088 L24.6369362,13.9942088 C24.3404255,13.9942088 24.0925957,14.2554931 24.0925957,14.530063 C24.0925957,14.8090615 24.2917447,15.0127747 24.5484255,15.0659172 C24.4908936,15.3936297 24.4200851,15.7080565 24.3404255,16.0180548 L22.123234,15.3094873 L18.1181277,14.011923 L14.4360851,13.3874979 L14.4537872,13.3874979 L14.4360851,13.3874979 L17.9366809,14.6850622 L24.3271489,16.0534832 C24.2474894,16.3634815 24.1501277,16.691194 24.0306383,16.9701925 C24.0129362,16.9701925 23.9775319,16.9524783 23.9642553,16.9524783 L23.8403404,16.9524783 C23.5394043,16.9524783 23.296,17.1783342 23.296,17.4883325 C23.296,17.5769034 23.3137021,17.6256174 23.3491064,17.6964742 C23.3756596,17.7806166 23.4243404,17.8514733 23.4951489,17.9046159 C23.5128511,17.9046159 23.5217021,17.9223301 23.5394043,17.9223301 C23.5571064,17.9400443 23.5748085,17.9577585 23.5925106,17.9577585 C23.5969362,17.9577585 23.6146383,17.9710441 23.6234894,17.9887583 C23.4862979,18.285471 23.3314043,18.5777551 23.1676596,18.8567535 L17.6888511,15.3094873 L17.68,15.3094873 L14.2811915,13.7506387 L14.2988936,13.7506387 L16.0779574,14.999489 L17.339234,15.8984841 L23.1499574,18.8744677 C22.9773617,19.1667518 22.804766,19.4590359 22.6144681,19.7203202 C22.5259574,19.6671777 22.4153191,19.6317493 22.3046809,19.6317493 C21.9993191,19.6317493 21.764766,19.8576052 21.764766,20.1543178 C21.764766,20.3270312 21.8355745,20.4820303 21.9639149,20.5661727 C21.7514894,20.8097428 21.5346383,21.0533129 21.3089362,21.2791688 L16.9276596,16.4343383 L14.0554894,14.0473514 L16.4408511,16.9347641 L21.282383,21.3101686 C21.0566809,21.5537387 20.8309787,21.7441662 20.5831489,21.952308 C20.4769362,21.863737 20.3662979,21.8327372 20.2468085,21.8327372 C19.9502979,21.8327372 19.7113191,22.0895929 19.7113191,22.3685914 C19.7113191,22.470448 19.7245957,22.5413047 19.7511489,22.6077329 C19.4679149,22.7804463 19.1714043,22.9708738 18.8881702,23.1613013 L15.9053617,17.3510475 L13.7368511,14.2732073 L15.2990638,17.67876 L18.852766,23.1790155 C18.5695319,23.3340146 18.2818723,23.4934423 17.9897872,23.6307273 C17.9101277,23.4225856 17.7198298,23.3030148 17.5074043,23.3030148 C17.2020426,23.3030148 16.9586383,23.5598706 16.9586383,23.838869 C16.9586383,23.9052972 16.9763404,23.976154 16.9940426,24.0470107 C16.6842553,24.1488673 16.3833191,24.2507239 16.0602553,24.3215807 L14.6794894,17.9223301 L13.3828085,14.4459206 L13.3828085,14.4282064 L14.0200851,18.1127576 L16.0292766,24.3392948 C15.7062128,24.4234372 15.3875745,24.5120082 15.0689362,24.5474366 C15.0246809,24.3038665 14.7989787,24.0957247 14.5422979,24.0957247 C14.2280851,24.0957247 14.0068085,24.3392948 14.0068085,24.6138648 L14.0068085,24.6847215 C13.6748936,24.7201499 13.3474043,24.7378641 13.0199149,24.7378641 L13.3474043,18.2146142 L13.0022128,14.4769205 L12.6658723,18.2146142 L12.9933617,24.7378641 C12.6481702,24.7378641 12.3295319,24.7201499 11.988766,24.6847215 L11.988766,24.6138648 C11.988766,24.3392948 11.7497872,24.0957247 11.4444255,24.0957247 C11.1877447,24.0957247 10.9620426,24.3038665 10.9177872,24.5474366 C10.5991489,24.494294 10.2893617,24.4234372 9.984,24.3392948 L11.988766,18.1127576 L12.612766,14.4459206 L11.3160851,17.9223301 L9.95302128,24.3215807 C9.63880851,24.2507239 9.32902128,24.1488673 9.01038298,24.0470107 C9.03251064,23.976154 9.05021277,23.9052972 9.05021277,23.838869 C9.05021277,23.5598706 8.81123404,23.3030148 8.52357447,23.3030148 C8.29787234,23.3030148 8.10757447,23.4402998 8.0146383,23.6307273 C7.73140426,23.4934423 7.43489362,23.3340146 7.15165957,23.1790155 L10.7009362,17.67876 L12.2587234,14.2732073 L10.0990638,17.3333333 L7.12510638,23.1613013 C6.83744681,22.9708738 6.55421277,22.7981604 6.28425532,22.6077329 C6.34621277,22.5413047 6.39046809,22.4350196 6.39046809,22.3154488 C6.39046809,22.0054505 6.14706383,21.7618804 5.86382979,21.7618804 C5.68238298,21.7618804 5.53191489,21.8460228 5.44782979,21.9700221 C5.1867234,21.7441662 4.94774468,21.5537387 4.72204255,21.3101686 L9.5812766,16.9347641 L11.9666383,14.0473514 L9.08561702,16.4343383 L4.70434043,21.2791688 C4.46093617,21.0533129 4.24408511,20.7920286 4.03165957,20.5661727 C4.15114894,20.4643161 4.23523404,20.309317 4.23523404,20.1366036 C4.23523404,19.839891 3.99625532,19.6184636 3.69974468,19.6184636 C3.58025532,19.6184636 3.46961702,19.6494635 3.38110638,19.702606 C3.19080851,19.4413218 3.01821277,19.1667518 2.85446809,18.8744677 L8.67846809,15.8807699 L11.714383,13.7506387 L8.31557447,15.3094873 L2.83676596,18.8567535 C2.67302128,18.5777551 2.54468085,18.3031851 2.39421277,17.9887583 C2.60221277,17.9223301 2.74382979,17.7319026 2.74382979,17.5060467 C2.74382979,17.1960484 2.5092766,16.9524783 2.19948936,16.9524783 C2.11982979,16.9524783 2.04017021,16.9701925 1.97378723,17.0056208 C1.86757447,16.7089082 1.76578723,16.3811957 1.66842553,16.0534832 L8.06774468,14.6850622 L11.5860426,13.3874979 L7.88629787,14.011923 L1.65957447,16.0180548 C1.57548936,15.7080565 1.51353191,15.3936297 1.44714894,15.048203 C1.71268085,15.0127747 1.91182979,14.8090615 1.91182979,14.530063 C1.91182979,14.2377789 1.66842553,13.9942088 1.37634043,13.9942088 L1.31438298,13.9942088 C1.29668085,13.6842105 1.27455319,13.3520695 1.27455319,13.0066428 L7.79778723,13.3520695 L11.5240851,12.9889286 L7.79778723,12.6612161 L1.27455319,12.975643 C1.27455319,12.6612161 1.29668085,12.3157895 1.31438298,12.0057912 L1.41174468,12.0057912 C1.70382979,12.0057912 1.94723404,11.7799353 1.94723404,11.469937 C1.94723404,11.1732243 1.73038298,10.9650826 1.44714894,10.9340828 C1.51353191,10.6196559 1.57548936,10.2742293 1.65957447,9.99965934 L7.88629787,11.988077 L11.5860426,12.6125021 L8.06774468,11.3149378 L1.66842553,9.94651678 C1.76578723,9.61880429 1.86757447,9.30437745 1.97378723,9.01209334 C2.02246809,9.02980753 2.11097872,9.04752172 2.17293617,9.04752172 C2.47387234,9.04752172 2.70842553,8.80395163 2.70842553,8.51166752 C2.70842553,8.28581162 2.57123404,8.09538409 2.38978723,8.02452734 C2.52697872,7.71452904 2.67302128,7.42224493 2.83676596,7.12553228 L8.31557447,10.7082269 L11.7320851,12.2626469 L8.67846809,10.0838017 L2.85446809,7.10781809 C3.01821277,6.83324817 3.19965957,6.5542497 3.38995745,6.26196559 C3.46961702,6.34610799 3.59795745,6.38153637 3.70859574,6.38153637 C3.99625532,6.38153637 4.24408511,6.14239482 4.24408511,5.84568217 C4.24408511,5.69068302 4.16,5.53568387 4.0493617,5.41168455 C4.24408511,5.17254301 4.46093617,4.94668711 4.69548936,4.70311702 L9.07676596,9.56566173 L11.9666383,11.9526486 L9.5812766,9.06523591 L4.72204255,4.68540283 C4.96544681,4.46397547 5.19557447,4.23811957 5.44782979,4.02997786 C5.53191489,4.14954863 5.69123404,4.23811957 5.86382979,4.23811957 C6.16476596,4.23811957 6.40817021,3.99454948 6.40817021,3.68455118 C6.40817021,3.56498041 6.35506383,3.45869528 6.29310638,3.3568387 C6.57191489,3.197411 6.83744681,3.01141203 7.12510638,2.85198433 L10.0990638,8.66666667 L12.2587234,11.7090785 L10.7009362,8.3035258 L7.15165957,2.83427014 C7.43489362,2.6615568 7.72255319,2.50655766 8.00578723,2.3692727 C8.09429787,2.57741441 8.28459574,2.71469937 8.50587234,2.71469937 C8.81123404,2.71469937 9.0413617,2.47112928 9.0413617,2.19655936 C9.0413617,2.10798842 9.02808511,2.02384602 9.01038298,1.97070346 C9.31131915,1.85113269 9.63880851,1.76256174 9.95302128,1.66070516 L11.3337872,8.04224153 L12.6304681,11.5717936 L11.997617,7.88724238 L9.99285106,1.66070516 C10.3070638,1.55442003 10.6168511,1.50570601 10.9443404,1.43484926 C10.9797447,1.69613354 11.2054468,1.90427525 11.4709787,1.90427525 C11.7763404,1.90427525 12.0153191,1.66070516 12.0153191,1.35070686 L12.0153191,1.2975643 C12.338383,1.26213592 12.6658723,1.26213592 12.9933617,1.26213592 M13.0022128,0 C5.82842553,0 0,5.81025379 0,12.9889286 C0,20.172032 5.82842553,26 13.0022128,26 C20.176,26 26,20.172032 26,12.9889286 C25.9955745,5.81025379 20.176,0 13.0022128,0" id="Fill-4" fill="#16007E"></path>
                            <path d="M13.0190298,11.0536536 C14.0900085,11.0536536 14.9529872,11.9349344 14.9529872,12.9889286 C14.9529872,14.0650656 14.0900085,14.9463464 13.0190298,14.9463464 C11.9303489,14.9463464 11.0673702,14.0650656 11.0673702,12.9889286 C11.0673702,11.9349344 11.9303489,11.0536536 13.0190298,11.0536536" id="Fill-6" fill="#FFFFFF"></path>
                            <path d="M13.0190298,11.5031511 C13.8421787,11.5031511 14.5148596,12.1585761 14.5148596,12.9911429 C14.5148596,13.8369954 13.8421787,14.5145631 13.0190298,14.5145631 C12.1826043,14.5145631 11.4966468,13.8369954 11.4966468,12.9911429 C11.4966468,12.1585761 12.1826043,11.5031511 13.0190298,11.5031511" id="Fill-8" fill="#16007E"></path>
                        </g>
                    </g>
                </g>
            </g>
        </g>
    </g>
</svg>