<?xml version="1.0" encoding="UTF-8"?>
<svg width="48px" height="48px" viewBox="0 0 48 48" version="1.1" xmlns="http://www.w3.org/2000/svg" xmlns:xlink="http://www.w3.org/1999/xlink">
    <title>instagram</title>
    <g id="Page-1" stroke="none" stroke-width="1" fill="none" fill-rule="evenodd">
        <g id="card-services" transform="translate(-1773.000000, -2882.000000)">
            <g id="instagram" transform="translate(1773.000000, 2882.000000)">
                <path d="M24,0 C37.2552,0 48,10.7448 48,24 C48,37.2552 37.2552,48 24,48 C10.7448,48 0,37.2552 0,24 C0,10.7448 10.7448,0 24,0" id="Fill-1" fill="#8C191C"></path>
                <path d="M24,8.88888 C19.896,8.88888 19.3812,8.90568 17.7696,8.98008 C16.1616,9.05328 15.0624,9.30888 14.1012,9.68208 C13.1076,10.06848 12.2652,10.58448 11.4252,11.42568 C10.5852,12.26568 10.068,13.10808 9.6816,14.10168 C9.3084,15.06288 9.0528,16.16088 8.9796,17.77008 C8.9064,19.38168 8.8884,19.89648 8.8884,24.00048 C8.8884,28.10448 8.9064,28.61808 8.9796,30.23088 C9.0528,31.83888 9.3084,32.93688 9.6816,33.89808 C10.068,34.89168 10.5852,35.73528 11.4252,36.57528 C12.2652,37.41528 13.1076,37.93128 14.1012,38.31768 C15.0624,38.69088 16.1616,38.94648 17.7696,39.01968 C19.3812,39.09408 19.896,39.11088 24,39.11088 C28.104,39.11088 28.6188,39.09408 30.2304,39.01968 C31.8384,38.94648 32.9376,38.69088 33.8988,38.31768 C34.8924,37.93128 35.7348,37.41528 36.5748,36.57528 C37.4148,35.73528 37.932,34.89168 38.3172,33.89808 C38.6916,32.93688 38.9472,31.83888 39.0204,30.23088 C39.0936,28.61808 39.1116,28.10448 39.1116,24.00048 C39.1116,19.89648 39.0936,19.38168 39.0204,17.77008 C38.9472,16.16088 38.6916,15.06288 38.3172,14.10168 C37.932,13.10808 37.4148,12.26568 36.5748,11.42568 C35.7348,10.58448 34.8924,10.06848 33.8988,9.68208 C32.9376,9.30888 31.8384,9.05328 30.2304,8.98008 C28.6188,8.90568 28.104,8.88888 24,8.88888 M24,11.61168 C28.0344,11.61168 28.5132,11.62728 30.1056,11.69928 C31.5792,11.76648 32.3796,12.01368 32.9124,12.22008 C33.618,12.49368 34.1208,12.82128 34.65,13.35048 C35.178,13.87968 35.5056,14.38248 35.7804,15.08808 C35.9868,15.62088 36.2328,16.42008 36.3,17.89368 C36.3732,19.48728 36.3888,19.96488 36.3888,24.00048 C36.3888,28.03488 36.3732,28.51248 36.3,30.10608 C36.2328,31.57968 35.9868,32.38008 35.7804,32.91168 C35.5056,33.61728 35.178,34.12128 34.65,34.64928 C34.1208,35.17848 33.618,35.50608 32.9124,35.77968 C32.3796,35.98728 31.5792,36.23328 30.1056,36.30048 C28.5132,36.37248 28.0356,36.38808 24,36.38808 C19.9644,36.38808 19.4868,36.37248 17.8944,36.30048 C16.4208,36.23328 15.6204,35.98728 15.0876,35.77968 C14.382,35.50608 13.8792,35.17848 13.35,34.64928 C12.822,34.12128 12.4944,33.61728 12.2196,32.91168 C12.0132,32.38008 11.7672,31.57968 11.7,30.10608 C11.6268,28.51248 11.6112,28.03488 11.6112,24.00048 C11.6112,19.96488 11.6268,19.48728 11.7,17.89368 C11.7672,16.42008 12.0132,15.62088 12.2196,15.08808 C12.4944,14.38248 12.822,13.87968 13.35,13.35048 C13.8792,12.82128 14.382,12.49368 15.0876,12.22008 C15.6204,12.01368 16.4208,11.76648 17.8932,11.69928 C19.4868,11.62728 19.9656,11.61168 24,11.61168" id="Fill-3" fill="#FEFEFE"></path>
                <path d="M24,29.037 C21.2184,29.037 18.9624,26.7822 18.9624,23.9994 C18.9624,21.2178 21.2184,18.963 24,18.963 C26.7816,18.963 29.0376,21.2178 29.0376,23.9994 C29.0376,26.7822 26.7816,29.037 24,29.037 M24,16.2402 C19.7148,16.2402 16.2408,19.7142 16.2408,23.9994 C16.2408,28.2858 19.7148,31.7598 24,31.7598 C28.2852,31.7598 31.7592,28.2858 31.7592,23.9994 C31.7592,19.7142 28.2852,16.2402 24,16.2402" id="Fill-5" fill="#FEFEFE"></path>
                <path d="M33.87972,15.9336 C33.87972,16.9356 33.06732,17.7468 32.06652,17.7468 C31.06452,17.7468 30.25332,16.9356 30.25332,15.9336 C30.25332,14.9316 31.06452,14.1204 32.06652,14.1204 C33.06732,14.1204 33.87972,14.9316 33.87972,15.9336" id="Fill-7" fill="#FEFEFE"></path>
            </g>
        </g>
    </g>
</svg>