<?xml version="1.0" encoding="UTF-8"?>
<svg width="48px" height="48px" viewBox="0 0 48 48" version="1.1" xmlns="http://www.w3.org/2000/svg" xmlns:xlink="http://www.w3.org/1999/xlink">
    <title>linkedin</title>
    <g id="Page-1" stroke="none" stroke-width="1" fill="none" fill-rule="evenodd">
        <g id="card-services" transform="translate(-1773.000000, -2998.000000)">
            <g id="linkedin" transform="translate(1773.000000, 2998.000000)">
                <path d="M48,24 C48,37.2552 37.2552,48 24,48 C10.7448,48 0,37.2552 0,24 C0,10.7448 10.7448,0 24,0 C37.2552,0 48,10.7448 48,24" id="Fill-1" fill="#8C191C"></path>
                <path d="M25.85712,20.72568 C26.25072,20.28288 26.57592,19.83288 26.98152,19.45128 C28.22592,18.27888 29.69832,17.68728 31.41672,17.70168 C32.36112,17.70888 33.29472,17.77728 34.20552,18.04128 C36.28872,18.64368 37.49952,20.07768 38.07672,22.11168 C38.50992,23.63808 38.58912,25.20528 38.59272,26.77608 C38.59752,30.09168 38.58312,33.40728 38.59032,36.72288 C38.59032,37.03248 38.50392,37.11408 38.19792,37.11168 C36.49032,37.09728 34.78152,37.09728 33.07392,37.1129265 C32.77392,37.11528 32.70912,37.02168 32.70912,36.73848 C32.71872,33.58368 32.72112,30.42888 32.71152,27.27408 C32.70912,26.48328 32.65872,25.69368 32.43672,24.92448 C32.02872,23.50848 31.01472,22.78728 29.53152,22.86528 C27.50592,22.97328 26.45232,23.97528 26.19432,26.03568 C26.13312,26.52768 26.10312,27.01968 26.10432,27.51528 C26.10672,30.58248 26.10072,33.65088 26.11152,36.71928 C26.11272,37.02528 26.03592,37.11528 25.72392,37.1129265 C24.00432,37.09728 22.28352,37.09848 20.56272,37.11168 C20.28672,37.1129265 20.20752,37.03848 20.20752,36.76008 C20.21592,30.68568 20.21592,24.61128 20.20752,18.53688 C20.20752,18.23688 20.30592,18.16728 20.58912,18.16968 C22.22352,18.18168 23.85672,18.18288 25.49112,18.16848 C25.79112,18.16488 25.86912,18.26328 25.86312,18.54768 C25.84632,19.27368 25.85712,19.99968 25.85712,20.72568" id="Fill-3" fill="#FEFEFE"></path>
                <path d="M16.49892,27.66756 C16.49892,30.67236 16.49412,33.67716 16.5061328,36.68316 C16.50732,37.01676 16.42452,37.11756 16.07892,37.1140525 C14.37132,37.09476 12.66372,37.09956 10.95612,37.11156 C10.68252,37.11276 10.60092,37.04436 10.60092,36.76236 C10.60932,30.67716 10.60812,24.59316 10.60212,18.50916 C10.60212,18.25716 10.66332,18.1670871 10.93092,18.16956 C12.66252,18.18036 14.39532,18.18396 16.12692,18.1670871 C16.45932,18.16356 16.50492,18.29316 16.50372,18.57876 C16.49532,21.60756 16.49892,24.63756 16.49892,27.66756" id="Fill-5" fill="#FEFEFE"></path>
                <path d="M16.9696828,12.13992 C16.97208,14.02632 15.43968,15.56352 13.55808,15.56472 C11.69928,15.56472 10.15488,14.02632 10.1488626,12.16992 C10.14288,10.29192 11.68608,8.74512 13.56528,8.74751721 C15.43008,8.74872 16.96728,10.28112 16.9696828,12.13992" id="Fill-7" fill="#FEFEFE"></path>
            </g>
        </g>
    </g>
</svg>