<?xml version="1.0" encoding="UTF-8"?>
<svg width="157px" height="30px" viewBox="0 0 170 30" version="1.1" xmlns="http://www.w3.org/2000/svg" xmlns:xlink="http://www.w3.org/1999/xlink">
    <title>C3EC0D1F-F2BD-44F8-ABE4-D6291A481698</title>
    <g id="Page-1" stroke="none" stroke-width="1" fill="none" fill-rule="evenodd">
        <g id="JOG-home-page-mobile" transform="translate(-21.000000, -15.000000)">
            <g id="Group-31" transform="translate(21.000000, 15.000000)">
                <g id="g3010" transform="translate(15.000000, 15.000000) scale(-1, 1) rotate(-180.000000) translate(-15.000000, -15.000000) translate(0.000000, 0.000000)">
                    <path d="M30,15.000125 C30,6.716 23.284,0 14.999875,0 C6.71570833,0 -8.16691971e-16,6.716 -8.16691971e-16,15.000125 C-8.16691971e-16,23.284375 6.71570833,30 14.999875,30 C23.284,30 30,23.284375 30,15.000125" id="path38" fill="#781F19" fill-rule="nonzero"></path>
                    <path d="M26.575625,15.000125 C26.575625,8.60691667 21.3930417,3.424375 14.999875,3.424375 C8.60691667,3.424375 3.42433333,8.60691667 3.42433333,15.000125 C3.42433333,21.3930833 8.60691667,26.57575 14.999875,26.57575 C21.3930417,26.57575 26.575625,21.3930833 26.575625,15.000125" id="path40" fill="#D6A64F" fill-rule="nonzero"></path>
                    <path d="M26.575625,15.000125 C26.575625,8.60691667 21.3930417,3.424375 14.999875,3.424375 C8.60691667,3.424375 3.42433333,8.60691667 3.42433333,15.000125 C3.42433333,21.3930833 8.60691667,26.57575 14.999875,26.57575 C21.3930417,26.57575 26.575625,21.3930833 26.575625,15.000125 L26.575625,15.000125 Z" id="path42" stroke="#FFFFFF" stroke-width="0.5"></path>
                    <path d="M4.97491667,5.036 C4.97491667,5.036 6.21966667,6.308875 6.21966667,6.308875 C6.21966667,6.308875 6.50666667,6.028125 6.50666667,6.028125 C6.50666667,6.028125 5.26191667,4.75545833 5.26191667,4.75545833 C5.26191667,4.75545833 4.97491667,5.036 4.97491667,5.036" id="path44" fill="#FFFFFF" fill-rule="nonzero"></path>
                    <path d="M5.85529167,6.66308333 C5.85529167,6.66308333 4.47129167,5.54291667 4.47129167,5.54291667 C4.47129167,5.54291667 4.17554167,5.90870833 4.17554167,5.90870833 C4.17554167,5.90870833 4.450125,6.606625 4.450125,6.606625 C4.5295,6.80679167 4.637125,7.0265 4.7415,7.21616667 C4.7415,7.21616667 4.73816667,7.22041667 4.73816667,7.22041667 C4.57045833,7.054 4.38879167,6.89658333 4.17916667,6.72708333 C4.17916667,6.72708333 3.77675,6.40145833 3.77675,6.40145833 C3.77675,6.40145833 3.54408333,6.68891667 3.54408333,6.68891667 C3.54408333,6.68891667 4.92808333,7.80875 4.92808333,7.80875 C4.92808333,7.80875 5.19383333,7.48029167 5.19383333,7.48029167 C5.19383333,7.48029167 4.89925,6.75270833 4.89925,6.75270833 C4.81575,6.54908333 4.71408333,6.31383333 4.60495833,6.11679167 C4.60495833,6.11679167 4.61141667,6.10866667 4.61141667,6.10866667 C4.78825,6.26833333 4.97983333,6.430375 5.20554167,6.61320833 C5.20554167,6.61320833 5.62245833,6.95054167 5.62245833,6.95054167 C5.62245833,6.95054167 5.85525,6.66308333 5.85525,6.66308333" id="path46" fill="#FFFFFF" fill-rule="nonzero"></path>
                    <path d="M4.17670833,8.42679167 C4.16641667,8.46033333 4.13775,8.51091667 4.114125,8.55225 C3.934125,8.87220833 3.6405,8.98133333 3.2715,8.77004167 C2.93879167,8.579875 2.88825,8.3015 3.06129167,7.99854167 C3.10475,7.92316667 3.14158333,7.87416667 3.16558333,7.84829167 C3.16558333,7.84829167 4.17670833,8.42679167 4.17670833,8.42679167 L4.17670833,8.42679167 Z M3.117375,7.358375 C3.02075,7.47366667 2.91375,7.63441667 2.81408333,7.8085 C2.64483333,8.1045 2.58283333,8.32441667 2.61129167,8.53533333 C2.63879167,8.764375 2.77358333,8.97508333 3.048875,9.1325 C3.3445,9.30175 3.610125,9.31075 3.820375,9.23620833 C4.04858333,9.15083333 4.25583333,8.937625 4.428875,8.63491667 C4.53258333,8.45375 4.595875,8.316625 4.632875,8.22495833 C4.632875,8.22495833 3.117375,7.358375 3.117375,7.358375" id="path48" fill="#FFFFFF" fill-rule="nonzero"></path>
                    <path d="M1.90579167,9.66945833 C1.90579167,9.66945833 3.54458333,10.365 3.54458333,10.365 C3.54458333,10.365 3.70154167,9.99529167 3.70154167,9.99529167 C3.70154167,9.99529167 2.06254167,9.299875 2.06254167,9.299875 C2.06254167,9.299875 1.90579167,9.66945833 1.90579167,9.66945833" id="path50" fill="#FFFFFF" fill-rule="nonzero"></path>
                    <path d="M2.37445833,11.4497083 C2.37445833,11.4497083 2.04375,11.2364167 2.04375,11.2364167 C1.95058333,11.1785417 1.83020833,11.1102917 1.73891667,11.0555833 C1.73891667,11.0555833 1.74141667,11.048125 1.74141667,11.048125 C1.84945833,11.05525 1.98670833,11.0655 2.09325,11.0690417 C2.09325,11.0690417 2.48608333,11.0719583 2.48608333,11.0719583 C2.48608333,11.0719583 2.37445833,11.4495417 2.37445833,11.4495417 L2.37445833,11.4497083 Z M2.79129167,11.1015417 C2.79129167,11.1015417 3.26466667,11.1117917 3.26466667,11.1117917 C3.26466667,11.1117917 3.38266667,10.7116667 3.38266667,10.7116667 C3.38266667,10.7116667 1.521125,10.7298333 1.521125,10.7298333 C1.521125,10.7298333 1.37241667,11.2339167 1.37241667,11.2339167 C1.37241667,11.2339167 2.92320833,12.26975 2.92320833,12.26975 C2.92320833,12.26975 3.04570833,11.854125 3.04570833,11.854125 C3.04570833,11.854125 2.646375,11.5933333 2.646375,11.5933333 C2.646375,11.5933333 2.79129167,11.1015417 2.79129167,11.1015417" id="path52" fill="#FFFFFF" fill-rule="nonzero"></path>
                    <path d="M2.84666667,12.6575 C2.84666667,12.6575 1.08141667,12.4273333 1.08141667,12.4273333 C1.08141667,12.4273333 1.02058333,12.8935 1.02058333,12.8935 C1.02058333,12.8935 1.61975,13.3445833 1.61975,13.3445833 C1.79208333,13.4736667 1.998625,13.6044167 2.187125,13.7115417 C2.187125,13.7115417 2.18670833,13.7168333 2.18670833,13.7168333 C1.95675,13.663 1.719375,13.624125 1.45229167,13.5891667 C1.45229167,13.5891667 0.938875,13.5220833 0.938875,13.5220833 C0.938875,13.5220833 0.890916667,13.8888333 0.890916667,13.8888333 C0.890916667,13.8888333 2.65633333,14.1187917 2.65633333,14.1187917 C2.65633333,14.1187917 2.711,13.6998333 2.711,13.6998333 C2.711,13.6998333 2.07925,13.233875 2.07925,13.233875 C1.90170833,13.1040833 1.69158333,12.9570417 1.49566667,12.84625 C1.49566667,12.84625 1.49733333,12.835875 1.49733333,12.835875 C1.73129167,12.8796667 1.97945833,12.91725 2.267625,12.9549167 C2.267625,12.9549167 2.799125,13.024125 2.799125,13.024125 C2.799125,13.024125 2.84695833,12.6575 2.84695833,12.6575" id="path54" fill="#FFFFFF" fill-rule="nonzero"></path>
                    <path d="M0.887833333,15.7979583 C0.887833333,15.7979583 2.66666667,15.7237917 2.66666667,15.7237917 C2.66666667,15.7237917 2.64991667,15.3226667 2.64991667,15.3226667 C2.64991667,15.3226667 0.871041667,15.3968333 0.871041667,15.3968333 C0.871041667,15.3968333 0.887833333,15.7979583 0.887833333,15.7979583" id="path56" fill="#FFFFFF" fill-rule="nonzero"></path>
                    <path d="M2.68629167,16.2350833 C2.68629167,16.2350833 0.928208333,16.5157083 0.928208333,16.5157083 C0.928208333,16.5157083 1.002375,16.98 1.002375,16.98 C1.002375,16.98 1.70479167,17.2423333 1.70479167,17.2423333 C1.9065,17.3170833 2.14204167,17.3839167 2.35308333,17.4329583 C2.35308333,17.4329583 2.35433333,17.43825 2.35433333,17.43825 C2.11845833,17.4518333 1.87975,17.4818333 1.61375,17.524375 C1.61375,17.524375 1.10233333,17.606 1.10233333,17.606 C1.10233333,17.606 1.16083333,17.9711667 1.16083333,17.9711667 C1.16083333,17.9711667 2.91875,17.6905417 2.91875,17.6905417 C2.91875,17.6905417 2.85216667,17.273125 2.85216667,17.273125 C2.85216667,17.273125 2.11420833,17.005875 2.11420833,17.005875 C1.90704167,16.9319167 1.66383333,16.8502917 1.4445,16.79975 C1.4445,16.79975 1.44283333,16.789375 1.44283333,16.789375 C1.67975,16.7649167 1.928375,16.7305417 2.215125,16.6847083 C2.215125,16.6847083 2.744625,16.6001667 2.744625,16.6001667 C2.744625,16.6001667 2.68641667,16.2350833 2.68641667,16.2350833" id="path58" fill="#FFFFFF" fill-rule="nonzero"></path>
                    <path d="M2.65945833,18.3174583 C2.74404167,18.4017083 2.847375,18.546375 2.89875,18.7102917 C2.95404167,18.88675 2.91008333,19.002875 2.79670833,19.0384167 C2.69325,19.0707917 2.605,19.0098333 2.4705,18.8277083 C2.28129167,18.5770833 2.06666667,18.439375 1.817125,18.5175417 C1.527125,18.608375 1.38433333,18.921625 1.50920833,19.319875 C1.56991667,19.5140417 1.65116667,19.6406667 1.73075,19.7265417 C1.73075,19.7265417 2.01129167,19.5445417 2.01129167,19.5445417 C1.958,19.48925 1.87141667,19.3807083 1.82016667,19.217 C1.76795833,19.0505833 1.821,18.9454583 1.9065,18.9185417 C2.01504167,18.884625 2.09216667,18.9629583 2.24725,19.1578333 C2.45216667,19.423125 2.65191667,19.512875 2.89391667,19.4369167 C3.17879167,19.34775 3.35279167,19.0552917 3.20679167,18.588875 C3.14595833,18.3948333 3.03304167,18.2197917 2.950125,18.1406667 C2.950125,18.1406667 2.65945833,18.3174583 2.65945833,18.3174583" id="path60" fill="#FFFFFF" fill-rule="nonzero"></path>
                    <path d="M2.38925,20.6029167 C2.38925,20.6029167 2.187125,20.1665 2.187125,20.1665 C2.187125,20.1665 1.88054167,20.3084583 1.88054167,20.3084583 C1.88054167,20.3084583 2.45525,21.5502917 2.45525,21.5502917 C2.45525,21.5502917 2.761875,21.4082917 2.761875,21.4082917 C2.761875,21.4082917 2.558,20.9671667 2.558,20.9671667 C2.558,20.9671667 3.86666667,20.3615 3.86666667,20.3615 C3.86666667,20.3615 3.698375,19.997125 3.698375,19.997125 C3.698375,19.997125 2.38925,20.6029167 2.38925,20.6029167" id="path62" fill="#FFFFFF" fill-rule="nonzero"></path>
                    <path d="M2.94304167,22.380125 C2.94304167,22.380125 4.474,21.47125 4.474,21.47125 C4.474,21.47125 4.26908333,21.126 4.26908333,21.126 C4.26908333,21.126 2.738125,22.034875 2.738125,22.034875 C2.738125,22.034875 2.94304167,22.380125 2.94304167,22.380125" id="path64" fill="#FFFFFF" fill-rule="nonzero"></path>
                    <path d="M3.78825,23.0411667 C3.78825,23.0411667 3.50208333,22.6549583 3.50208333,22.6549583 C3.50208333,22.6549583 3.23054167,22.8562083 3.23054167,22.8562083 C3.23054167,22.8562083 4.045,23.9555833 4.045,23.9555833 C4.045,23.9555833 4.31654167,23.7543333 4.31654167,23.7543333 C4.31654167,23.7543333 4.02741667,23.36375 4.02741667,23.36375 C4.02741667,23.36375 5.18633333,22.5052083 5.18633333,22.5052083 C5.18633333,22.5052083 4.94725,22.182625 4.94725,22.182625 C4.94725,22.182625 3.78825,23.0411667 3.78825,23.0411667" id="path66" fill="#FFFFFF" fill-rule="nonzero"></path>
                    <path d="M4.732875,24.717875 C4.732875,24.717875 5.45904167,23.998125 5.45904167,23.998125 C5.678375,23.7806667 5.872875,23.755375 6.01604167,23.8998333 C6.16475,24.0498333 6.14145833,24.2365833 5.916375,24.4596667 C5.916375,24.4596667 5.19033333,25.1793333 5.19033333,25.1793333 C5.19033333,25.1793333 5.47308333,25.4644583 5.47308333,25.4644583 C5.47308333,25.4644583 6.182125,24.7615833 6.182125,24.7615833 C6.57233333,24.374875 6.563,23.993875 6.235625,23.6635 C5.91954167,23.3445833 5.55729167,23.3355 5.15570833,23.7335417 C5.15570833,23.7335417 4.45025,24.4325 4.45025,24.4325 C4.45025,24.4325 4.732875,24.717875 4.732875,24.717875" id="path68" fill="#FFFFFF" fill-rule="nonzero"></path>
                    <path d="M6.537375,25.8968333 C6.537375,25.8968333 6.15375,25.607375 6.15375,25.607375 C6.15375,25.607375 5.95025,25.87725 5.95025,25.87725 C5.95025,25.87725 7.04229167,26.7011667 7.04229167,26.7011667 C7.04229167,26.7011667 7.24604167,26.4312917 7.24604167,26.4312917 C7.24604167,26.4312917 6.85804167,26.1385 6.85804167,26.1385 C6.85804167,26.1385 7.72641667,24.9871667 7.72641667,24.9871667 C7.72641667,24.9871667 7.40608333,24.7455 7.40608333,24.7455 C7.40608333,24.7455 6.537375,25.8968333 6.537375,25.8968333" id="path70" fill="#FFFFFF" fill-rule="nonzero"></path>
                    <path d="M8.978375,26.65475 C8.978375,26.65475 8.40908333,26.3304167 8.40908333,26.3304167 C8.40908333,26.3304167 8.618375,25.963125 8.618375,25.963125 C8.618375,25.963125 9.25404167,26.3254583 9.25404167,26.3254583 C9.25404167,26.3254583 9.4175,26.0387083 9.4175,26.0387083 C9.4175,26.0387083 8.43291667,25.4775417 8.43291667,25.4775417 C8.43291667,25.4775417 7.551375,27.0242083 7.551375,27.0242083 C7.551375,27.0242083 8.50358333,27.5670417 8.50358333,27.5670417 C8.50358333,27.5670417 8.66704167,27.2802917 8.66704167,27.2802917 C8.66704167,27.2802917 8.06370833,26.9362083 8.06370833,26.9362083 C8.06370833,26.9362083 8.24691667,26.6149583 8.24691667,26.6149583 C8.24691667,26.6149583 8.81595833,26.9392917 8.81595833,26.9392917 C8.81595833,26.9392917 8.978375,26.65475 8.978375,26.65475" id="path72" fill="#FFFFFF" fill-rule="nonzero"></path>
                    <path d="M11.08875,27.0264583 C11.3475417,27.1105417 11.416625,27.4025 11.3087917,27.7339167 C11.2099583,28.0379583 10.982,28.2526667 10.718125,28.1669167 C10.4541667,28.0812917 10.3895417,27.7767083 10.4924167,27.460375 C10.596125,27.141125 10.8300833,26.942375 11.0865,27.025625 C11.0865,27.025625 11.0885833,27.0264583 11.0885833,27.0264583 L11.08875,27.0264583 Z M11.17025,26.71675 C10.6701667,26.55425 10.2506667,26.83725 10.0936667,27.3195 C9.92879167,27.827 10.1319583,28.3124167 10.6292917,28.47425 C11.14925,28.643125 11.5597917,28.3460833 11.7116667,27.878875 C11.8930833,27.321125 11.6675,26.8784583 11.17275,26.7177083 C11.17275,26.7177083 11.17025,26.716875 11.17025,26.716875" id="path74" fill="#FFFFFF" fill-rule="nonzero"></path>
                    <path d="M12.1192917,28.8485417 C12.1192917,28.8485417 13.1898333,29.02925 13.1898333,29.02925 C13.1898333,29.02925 13.24475,28.703625 13.24475,28.703625 C13.24475,28.703625 12.569875,28.58975 12.569875,28.58975 C12.569875,28.58975 12.6377917,28.1886667 12.6377917,28.1886667 C12.6377917,28.1886667 13.26825,28.2952083 13.26825,28.2952083 C13.26825,28.2952083 13.3225833,27.9721667 13.3225833,27.9721667 C13.3225833,27.9721667 12.6922083,27.86575 12.6922083,27.86575 C12.6922083,27.86575 12.8115,27.1597917 12.8115,27.1597917 C12.8115,27.1597917 12.415625,27.0929583 12.415625,27.0929583 C12.415625,27.0929583 12.1192917,28.8485417 12.1192917,28.8485417" id="path76" fill="#FFFFFF" fill-rule="nonzero"></path>
                    <path d="M15.0094167,28.7964583 C15.0094167,28.7964583 14.5289583,28.80425 14.5289583,28.80425 C14.5289583,28.80425 14.5342917,29.1424167 14.5342917,29.1424167 C14.5342917,29.1424167 15.9024583,29.1202083 15.9024583,29.1202083 C15.9024583,29.1202083 15.8969167,28.7821667 15.8969167,28.7821667 C15.8969167,28.7821667 15.410875,28.7899583 15.410875,28.7899583 C15.410875,28.7899583 15.3875,27.3478333 15.3875,27.3478333 C15.3875,27.3478333 14.9861667,27.3543333 14.9861667,27.3543333 C14.9861667,27.3543333 15.0094167,28.7964583 15.0094167,28.7964583" id="path78" fill="#FFFFFF" fill-rule="nonzero"></path>
                    <path d="M17.4007917,27.8965833 C17.4007917,27.8965833 16.752375,27.98975 16.752375,27.98975 C16.752375,27.98975 16.69225,27.5714167 16.69225,27.5714167 C16.69225,27.5714167 17.4165,27.4674583 17.4165,27.4674583 C17.4165,27.4674583 17.369625,27.1406667 17.369625,27.1406667 C17.369625,27.1406667 16.2479167,27.3016667 16.2479167,27.3016667 C16.2479167,27.3016667 16.5007917,29.063875 16.5007917,29.063875 C16.5007917,29.063875 17.586125,28.9080833 17.586125,28.9080833 C17.586125,28.9080833 17.538875,28.581375 17.538875,28.581375 C17.538875,28.581375 16.8514583,28.68 16.8514583,28.68 C16.8514583,28.68 16.7989167,28.3139583 16.7989167,28.3139583 C16.7989167,28.3139583 17.4472083,28.2209167 17.4472083,28.2209167 C17.4472083,28.2209167 17.4007917,27.8965833 17.4007917,27.8965833" id="path80" fill="#FFFFFF" fill-rule="nonzero"></path>
                    <path d="M19.0614167,26.7402917 C18.9835833,26.7267083 18.8095,26.732375 18.603625,26.7907083 C18.0114167,26.958875 17.8120833,27.4164583 17.9513333,27.9068333 C18.117375,28.49125 18.6258333,28.6957083 19.144,28.5485417 C19.3446667,28.4915 19.4857917,28.4074167 19.5441667,28.352375 C19.5441667,28.352375 19.3760833,28.0705417 19.3760833,28.0705417 C19.3093333,28.12525 19.2087083,28.18675 19.069,28.2265833 C18.7642917,28.313125 18.4726667,28.1955 18.3635417,27.81175 C18.2660833,27.4686667 18.4080417,27.195 18.7511667,27.0975417 C18.8707083,27.0636667 19.004375,27.0504167 19.092375,27.0610417 C19.092375,27.0610417 19.0614167,26.7402917 19.0614167,26.7402917" id="path82" fill="#FFFFFF" fill-rule="nonzero"></path>
                    <path d="M20.5592917,28.0012083 C20.5592917,28.0012083 20.2742083,27.3765417 20.2742083,27.3765417 C20.2742083,27.3765417 20.877375,27.1012083 20.877375,27.1012083 C20.877375,27.1012083 21.1625,27.726 21.1625,27.726 C21.1625,27.726 21.5279167,27.559375 21.5279167,27.559375 C21.5279167,27.559375 20.7887917,25.9395833 20.7887917,25.9395833 C20.7887917,25.9395833 20.4235833,26.1065 20.4235833,26.1065 C20.4235833,26.1065 20.7315,26.7817083 20.7315,26.7817083 C20.7315,26.7817083 20.1283333,27.0567917 20.1283333,27.0567917 C20.1283333,27.0567917 19.8204167,26.3815833 19.8204167,26.3815833 C19.8204167,26.3815833 19.454875,26.548125 19.454875,26.548125 C19.454875,26.548125 20.194125,28.168 20.194125,28.168 C20.194125,28.168 20.5592917,28.0012083 20.5592917,28.0012083" id="path84" fill="#FFFFFF" fill-rule="nonzero"></path>
                    <path d="M21.235625,25.69075 C21.235625,25.69075 22.2240833,27.1717083 22.2240833,27.1717083 C22.2240833,27.1717083 22.615,26.9107083 22.615,26.9107083 C22.615,26.9107083 22.5605833,26.1627083 22.5605833,26.1627083 C22.5441667,25.948125 22.5067083,25.7063333 22.46325,25.49375 C22.46325,25.49375 22.467875,25.4908333 22.467875,25.4908333 C22.578625,25.6995 22.705375,25.9038333 22.8549167,26.1280417 C22.8549167,26.1280417 23.142375,26.5586667 23.142375,26.5586667 C23.142375,26.5586667 23.4501667,26.353375 23.4501667,26.353375 C23.4501667,26.353375 22.4614583,24.872625 22.4614583,24.872625 C22.4614583,24.872625 22.1102083,25.1070833 22.1102083,25.1070833 C22.1102083,25.1070833 22.1750417,25.8895417 22.1750417,25.8895417 C22.1942917,26.1085417 22.2214583,26.3635417 22.2668333,26.5839167 C22.2668333,26.5839167 22.2582083,26.5898333 22.2582083,26.5898333 C22.13725,26.3847917 22.00225,26.173125 21.8409167,25.9315 C21.8409167,25.9315 21.5434167,25.4855 21.5434167,25.4855 C21.5434167,25.4855 21.235625,25.6906667 21.235625,25.6906667" id="path86" fill="#FFFFFF" fill-rule="nonzero"></path>
                    <path d="M23.6275833,24.241875 C23.8264583,24.0563333 24.115,24.13725 24.35325,24.392 C24.5712917,24.625625 24.6485417,24.9292917 24.4458333,25.118625 C24.2434167,25.3078333 23.9454167,25.21725 23.7184167,24.9739167 C23.4891667,24.72875 23.4284583,24.4276667 23.6254583,24.2437917 C23.6254583,24.2437917 23.6275417,24.2417083 23.6275417,24.2417083 L23.6275833,24.241875 Z M23.3958333,24.021 C23.011625,24.3797083 23.0557917,24.8839167 23.4022083,25.2546667 C23.766375,25.6446667 24.2893333,25.7019583 24.6719167,25.3450417 C25.071375,24.9717917 25.0101667,24.4687917 24.6748333,24.1097083 C24.2747917,23.6810833 23.778375,23.6640833 23.3977083,24.019125 C23.3977083,24.019125 23.3960417,24.0207917 23.3960417,24.0207917" id="path88" fill="#FFFFFF" fill-rule="nonzero"></path>
                    <path d="M25.71375,24.2309167 C25.71375,24.2309167 25.965,23.9176667 25.965,23.9176667 C25.965,23.9176667 24.8403333,23.0148333 24.8403333,23.0148333 C24.8403333,23.0148333 25.2835833,22.4627917 25.2835833,22.4627917 C25.2835833,22.4627917 25.0200833,22.251125 25.0200833,22.251125 C25.0200833,22.251125 24.325375,23.1161667 24.325375,23.1161667 C24.325375,23.1161667 25.71375,24.2309167 25.71375,24.2309167" id="path90" fill="#FFFFFF" fill-rule="nonzero"></path>
                    <path d="M25.8479167,21.4978333 C25.987875,21.2645833 26.2876667,21.2629167 26.5868333,21.4424167 C26.860625,21.6069583 27.01875,21.8774167 26.8760833,22.1150833 C26.7331667,22.3529583 26.4218333,22.34775 26.1365833,22.1765 C25.849,22.0038333 25.707875,21.7310833 25.8465,21.5002083 C25.8465,21.5002083 25.84775,21.4977083 25.84775,21.4977083 L25.8479167,21.4978333 Z M25.564125,21.349125 C25.29375,21.7998333 25.4751667,22.2724167 25.9098333,22.5334167 C26.3675,22.8080417 26.886125,22.7189583 27.1554167,22.270625 C27.437,21.8018333 27.2395,21.3352083 26.8183333,21.0823333 C26.3155417,20.7804167 25.8335417,20.9007917 25.56575,21.346875 C25.56575,21.346875 25.5640833,21.3489583 25.5640833,21.3489583" id="path92" fill="#FFFFFF" fill-rule="nonzero"></path>
                    <path d="M26.8422917,18.87875 C26.757125,18.9785417 26.6165833,19.1755417 26.5295417,19.3941667 C26.4096667,19.6960417 26.3990417,19.9447917 26.4835833,20.1544583 C26.56925,20.3618333 26.7518333,20.5310833 26.9947917,20.6275833 C27.54575,20.84325 28.0190417,20.5679583 28.2344583,20.0254583 C28.3191667,19.8117917 28.3427917,19.63075 28.3379167,19.5352083 C28.3379167,19.5352083 28.005,19.49375 28.005,19.49375 C28.0105417,19.6010833 27.996125,19.7233333 27.9240833,19.905 C27.8002917,20.2167917 27.529125,20.384875 27.1704167,20.2425417 C26.8269583,20.106 26.7136667,19.8110833 26.8355833,19.504125 C26.868625,19.420625 26.9057083,19.3559167 26.9295833,19.3313333 C26.9295833,19.3313333 27.2785833,19.46975 27.2785833,19.46975 C27.2785833,19.46975 27.177125,19.725 27.177125,19.725 C27.177125,19.725 27.469125,19.841 27.469125,19.841 C27.469125,19.841 27.7138333,19.2246667 27.7138333,19.2246667 C27.7138333,19.2246667 26.8422917,18.87875 26.8422917,18.87875" id="path94" fill="#FFFFFF" fill-rule="nonzero"></path>
                    <path d="M26.9902917,17.9895833 C26.9902917,17.9895833 27.7007083,18.1532917 27.7007083,18.1532917 C27.7007083,18.1532917 28.5988333,18.9376667 28.5988333,18.9376667 C28.5988333,18.9376667 28.7026667,18.4872083 28.7026667,18.4872083 C28.7026667,18.4872083 28.326,18.216125 28.326,18.216125 C28.21225,18.133 28.12875,18.073125 28.0249583,18.0057917 C28.0249583,18.0057917 28.0257917,18.0004583 28.0257917,18.0004583 C28.1428333,17.986875 28.2525833,17.9688333 28.3881667,17.9457917 C28.3881667,17.9457917 28.8455,17.866875 28.8455,17.866875 C28.8455,17.866875 28.9467083,17.4267917 28.9467083,17.4267917 C28.9467083,17.4267917 27.803625,17.7650833 27.803625,17.7650833 C27.803625,17.7650833 27.0803333,17.5984167 27.0803333,17.5984167 C27.0803333,17.5984167 26.9900833,17.9895833 26.9900833,17.9895833" id="path96" fill="#FFFFFF" fill-rule="nonzero"></path>
                    <path d="M28.043375,14.4934167 C28.2570417,14.50475 28.5130833,14.5170417 28.7744583,14.5210417 C28.7744583,14.5210417 28.7744583,14.526625 28.7744583,14.526625 C28.5464167,14.5809583 28.291625,14.650625 28.081875,14.7159583 C28.081875,14.7159583 27.3837083,14.9213333 27.3837083,14.9213333 C27.3837083,14.9213333 27.378625,15.235625 27.378625,15.235625 C27.378625,15.235625 28.062125,15.436875 28.062125,15.436875 C28.272875,15.4984167 28.5225417,15.5606667 28.756875,15.6093333 C28.756875,15.6093333 28.756875,15.614625 28.756875,15.614625 C28.5162917,15.6187917 28.2415417,15.6246667 28.019375,15.6316667 C28.019375,15.6316667 27.3429583,15.6550417 27.3429583,15.6550417 C27.3429583,15.6550417 27.3369583,16.0275417 27.3369583,16.0275417 C27.3369583,16.0275417 29.11875,15.94275 29.11875,15.94275 C29.11875,15.94275 29.127375,15.4065417 29.127375,15.4065417 C29.127375,15.4065417 28.5332917,15.222625 28.5332917,15.222625 C28.3308333,15.1612083 28.109875,15.104625 27.902,15.0616667 C27.902,15.0616667 27.902,15.051375 27.902,15.051375 C28.1087917,15.0069583 28.3421667,14.9500417 28.5439167,14.8925 C28.5439167,14.8925 29.1385833,14.7145417 29.1385833,14.7145417 C29.1385833,14.7145417 29.147125,14.1864583 29.147125,14.1864583 C29.147125,14.1864583 27.3685,14.0624167 27.3685,14.0624167 C27.3685,14.0624167 27.3624583,14.4535 27.3624583,14.4535 C27.3624583,14.4535 28.043375,14.4934167 28.043375,14.4934167" id="path98" fill="#FFFFFF" fill-rule="nonzero"></path>
                    <path d="M27.8955,12.617 C27.8955,12.617 28.2866667,12.6628333 28.2866667,12.6628333 C28.3954583,12.6739167 28.533625,12.6825417 28.6395833,12.6914167 C28.6395833,12.6914167 28.6408333,12.6993333 28.6408333,12.6993333 C28.5406667,12.7402917 28.413,12.7917083 28.3159167,12.8347917 C28.3159167,12.8347917 27.9614583,13.005 27.9614583,13.005 C27.9614583,13.005 27.8954583,12.617 27.8954583,12.617 L27.8955,12.617 Z M27.674375,13.1127083 C27.674375,13.1127083 27.2448333,13.3117083 27.2448333,13.3117083 C27.2448333,13.3117083 27.31475,13.7232083 27.31475,13.7232083 C27.31475,13.7232083 28.9787917,12.8879583 28.9787917,12.8879583 C28.9787917,12.8879583 28.8905833,12.3700417 28.8905833,12.3700417 C28.8905833,12.3700417 27.042125,12.121875 27.042125,12.121875 C27.042125,12.121875 27.1149167,12.548875 27.1149167,12.548875 C27.1149167,12.548875 27.5884167,12.6076667 27.5884167,12.6076667 C27.5884167,12.6076667 27.674375,13.1127083 27.674375,13.1127083" id="path100" fill="#FFFFFF" fill-rule="nonzero"></path>
                    <path d="M27.0985833,11.256625 C27.0799583,11.2268333 27.0611667,11.1717083 27.0459167,11.1267917 C26.9255833,10.7797917 27.03825,10.4875833 27.44125,10.3510417 C27.8038333,10.228125 28.0460833,10.3746667 28.1579167,10.7047917 C28.1860417,10.78725 28.1983333,10.8474583 28.2015,10.8825417 C28.2015,10.8825417 27.0985833,11.256625 27.0985833,11.256625 L27.0985833,11.256625 Z M28.6007083,11.1710833 C28.5784167,11.022625 28.5289167,10.8357917 28.4644167,10.645625 C28.3548333,10.3228333 28.2309167,10.1306667 28.054,10.0122083 C27.8646667,9.881 27.617125,9.842375 27.316875,9.94404167 C26.9942917,10.0536667 26.8117083,10.24675 26.7280833,10.4534583 C26.6411667,10.6811667 26.6635,10.97775 26.7754583,11.30775 C26.8425417,11.5054583 26.90325,11.643875 26.9471667,11.732 C26.9471667,11.732 28.6007083,11.1710833 28.6007083,11.1710833" id="path102" fill="#FFFFFF" fill-rule="nonzero"></path>
                    <path d="M26.9471667,9.04841667 C26.9471667,9.04841667 26.8739583,8.907625 26.8739583,8.907625 C26.7817083,8.72954167 26.8159583,8.57775 26.9542917,8.50595833 C27.0972917,8.431875 27.2235833,8.49116667 27.3087083,8.65545833 C27.3535833,8.74229167 27.374375,8.793875 27.38075,8.82341667 C27.38075,8.82341667 26.9471667,9.04841667 26.9471667,9.04841667 L26.9471667,9.04841667 Z M27.8082083,9.0505 C27.7699583,8.92495833 27.69625,8.74870833 27.5966667,8.55654167 C27.475,8.32175 27.3545417,8.17625 27.2049167,8.11091667 C27.0798333,8.054 26.9429167,8.05941667 26.7976667,8.13491667 C26.5981667,8.238125 26.5341667,8.45308333 26.5554167,8.61454167 C26.5554167,8.61454167 26.5484583,8.61829167 26.5484583,8.61829167 C26.44675,8.531375 26.31175,8.52379167 26.1457083,8.55958333 C25.9395833,8.604 25.7091667,8.664 25.6325,8.66520833 C25.6325,8.66520833 25.8219583,9.03095833 25.8219583,9.03095833 C25.87875,9.03133333 26.0284167,9.00416667 26.2463333,8.94770833 C26.4685833,8.88879167 26.5554167,8.93033333 26.6342917,9.07658333 C26.6342917,9.07658333 26.68925,9.18216667 26.68925,9.18216667 C26.68925,9.18216667 26.0679583,9.50458333 26.0679583,9.50458333 C26.0679583,9.50458333 26.251625,9.85879167 26.251625,9.85879167 C26.251625,9.85879167 27.8082083,9.05058333 27.8082083,9.05058333" id="path104" fill="#FFFFFF" fill-rule="nonzero"></path>
                    <path d="M25.5247917,7.178625 C25.5247917,7.178625 25.89575,7.04691667 25.89575,7.04691667 C25.9981667,7.00854167 26.1259583,6.95516667 26.2249583,6.91629167 C26.2249583,6.91629167 26.2295417,6.92266667 26.2295417,6.92266667 C26.157875,7.00383333 26.0662083,7.10633333 25.9980417,7.18795833 C25.9980417,7.18795833 25.7554583,7.49729167 25.7554583,7.49729167 C25.7554583,7.49729167 25.5247917,7.178625 25.5247917,7.178625 L25.5247917,7.178625 Z M25.5457083,7.72120833 C25.5457083,7.72120833 25.2484167,8.08958333 25.2484167,8.08958333 C25.2484167,8.08958333 25.493375,8.427625 25.493375,8.427625 C25.493375,8.427625 26.616125,6.9425 26.616125,6.9425 C26.616125,6.9425 26.307875,6.51695833 26.307875,6.51695833 C26.307875,6.51695833 24.5404583,7.112 24.5404583,7.112 C24.5404583,7.112 24.7945,7.46266667 24.7945,7.46266667 C24.7945,7.46266667 25.2452083,7.30616667 25.2452083,7.30616667 C25.2452083,7.30616667 25.5457083,7.72120833 25.5457083,7.72120833" id="path106" fill="#FFFFFF" fill-rule="nonzero"></path>
                    <path d="M24.5585417,6.52333333 C24.445125,6.48579167 24.2877083,6.40241667 24.16875,6.27875 C24.0405,6.145625 24.027875,6.02208333 24.1135,5.939625 C24.1913333,5.86454167 24.297625,5.879625 24.4993333,5.98216667 C24.7807083,6.12225 25.0340417,6.14916667 25.2225417,5.96775 C25.4412917,5.75704167 25.429125,5.413125 25.1395,5.11241667 C24.9985,4.96629167 24.8690417,4.88904167 24.7597917,4.84770833 C24.7597917,4.84770833 24.5899583,5.13566667 24.5899583,5.13566667 C24.6623333,5.16141667 24.788125,5.219875 24.9071667,5.34354167 C25.02825,5.46933333 25.028,5.58683333 24.9632917,5.64908333 C24.8813333,5.728 24.7775,5.69241667 24.5515417,5.58733333 C24.2497917,5.44145833 24.0309167,5.45066667 23.8483333,5.62654167 C23.6335,5.83358333 23.6084583,6.173125 23.9475417,6.52525 C24.0884583,6.67145833 24.267875,6.7775 24.3774583,6.81141667 C24.3774583,6.81141667 24.5585417,6.52333333 24.5585417,6.52333333" id="path108" fill="#FFFFFF" fill-rule="nonzero"></path>
                    <path d="M23.380625,4.39783333 C23.380625,4.25254167 23.26275,4.13466667 23.1173333,4.13466667 C22.9717083,4.13466667 22.8540833,4.25254167 22.8540833,4.39783333 C22.8540833,4.54320833 22.9717083,4.66120833 23.1173333,4.66120833 C23.26275,4.66120833 23.380625,4.54320833 23.380625,4.39783333" id="path110" fill="#FFFFFF" fill-rule="nonzero"></path>
                    <path d="M7.145875,4.39783333 C7.145875,4.25254167 7.027875,4.13479167 6.882625,4.13479167 C6.737125,4.13479167 6.61933333,4.25254167 6.61933333,4.39783333 C6.61933333,4.54320833 6.737125,4.66133333 6.882625,4.66133333 C7.027875,4.66133333 7.145875,4.54320833 7.145875,4.39783333" id="path112" fill="#FFFFFF" fill-rule="nonzero"></path>
                    <path d="M8.70541667,7.91304167 C8.70541667,7.91304167 12.91,7.16241667 12.91,7.16241667 C12.91,7.16241667 12.4594167,6.63695833 12.4594167,6.63695833 C12.4594167,6.63695833 16.5890417,6.27695833 16.5890417,6.27695833 C16.5890417,6.27695833 16.1755417,5.93904167 16.1755417,5.93904167 C16.1755417,5.93904167 20.2502083,5.76025 20.2502083,5.76025 C20.2502083,5.76025 14.8620417,5.22591667 14.8620417,5.22591667 C14.8620417,5.22591667 15.53775,5.826375 15.53775,5.826375 C15.53775,5.826375 11.25825,6.2615 11.25825,6.2615 C11.25825,6.2615 11.9714167,6.78695833 11.9714167,6.78695833 C11.9714167,6.78695833 8.70541667,7.91304167 8.70541667,7.91304167" id="path114" fill="#FFFFFF" fill-rule="nonzero"></path>
                    <path d="M8.22079167,4.25729167 C8.22079167,4.25729167 8.59070833,4.04041667 8.59070833,4.04041667 C8.59195833,4.11095833 8.601,4.17875 8.617875,4.24370833 C8.63491667,4.30841667 8.65995833,4.369125 8.693,4.42570833 C8.744625,4.51429167 8.823625,4.56875 8.92983333,4.58954167 C9.036,4.61041667 9.13841667,4.59204167 9.237625,4.533875 C9.3595,4.46241667 9.46025,4.33383333 9.54008333,4.14779167 C9.61995833,3.96225 9.67,3.74091667 9.69020833,3.484375 C9.69020833,3.484375 9.61429167,3.475625 9.61429167,3.475625 C9.59820833,3.66316667 9.55166667,3.82995833 9.47441667,3.97616667 C9.39729167,4.12241667 9.29691667,4.23175 9.173125,4.30429167 C9.10404167,4.34466667 9.02679167,4.34833333 8.94104167,4.315875 C8.85495833,4.28325 8.78633333,4.22233333 8.73445833,4.13433333 C8.69725,4.07079167 8.67575,4.024125 8.66975,3.99379167 C8.66975,3.99379167 8.815375,3.908625 8.815375,3.908625 C8.815375,3.908625 8.84216667,3.68041667 8.84216667,3.68041667 C8.84216667,3.68041667 8.64304167,3.797125 8.64304167,3.797125 C8.64304167,3.797125 7.95991667,2.63291667 7.95991667,2.63291667 C7.95991667,2.63291667 7.82641667,2.888625 7.82641667,2.888625 C7.82641667,2.888625 8.43233333,3.921 8.43233333,3.921 C8.43233333,3.921 8.24570833,4.030375 8.24570833,4.030375 C8.24570833,4.030375 8.22079167,4.25729167 8.22079167,4.25729167" id="path116" fill="#FFFFFF" fill-rule="nonzero"></path>
                    <path d="M9.183625,3.29054167 C9.16570833,3.218125 9.13733333,3.14233333 9.09895833,3.06283333 C9.124,3.00733333 9.15316667,2.95970833 9.185875,2.91979167 C9.21858333,2.88025 9.25429167,2.85095833 9.29254167,2.83229167 C9.33304167,2.81266667 9.377125,2.80345833 9.42495833,2.80416667 C9.47266667,2.805 9.51991667,2.815875 9.56620833,2.83641667 C9.56620833,2.83641667 9.754125,3.22391667 9.754125,3.22391667 C9.754125,3.22391667 9.2035,3.49120833 9.2035,3.49120833 C9.20795833,3.42945833 9.20141667,3.36270833 9.183625,3.29054167 L9.183625,3.29054167 Z M9.23229167,2.146875 C9.23229167,2.146875 9.44570833,2.58804167 9.44570833,2.58804167 C9.430375,2.58429167 9.408625,2.58595833 9.38075,2.59404167 C9.353125,2.60183333 9.31970833,2.61495833 9.28120833,2.63375 C9.22275,2.66233333 9.17170833,2.70791667 9.1285,2.770625 C9.085375,2.83358333 9.052875,2.90775 9.03104167,2.99325 C8.97941667,2.94341667 8.92345833,2.906 8.86333333,2.88045833 C8.80295833,2.85508333 8.74475,2.845875 8.68875,2.85270833 C8.72633333,2.63941667 8.809125,2.42325 8.9375,2.204625 C8.9375,2.204625 8.78775,2.141 8.78775,2.141 C8.568875,2.76920833 8.49079167,3.14729167 8.55316667,3.276125 C8.56995833,3.31133333 8.59391667,3.33579167 8.624875,3.35029167 C8.65579167,3.36483333 8.68416667,3.36591667 8.71,3.35320833 C8.73929167,3.33879167 8.76220833,3.31470833 8.77791667,3.2795 C8.794125,3.24454167 8.80179167,3.20308333 8.80154167,3.155625 C8.85375,3.1555 8.90183333,3.16933333 8.946,3.19670833 C8.99016667,3.224375 9.02370833,3.26216667 9.04733333,3.310125 C9.06779167,3.3525 9.08183333,3.393625 9.089625,3.43304167 C9.09766667,3.47275 9.09858333,3.50970833 9.09254167,3.54466667 C9.09254167,3.54466667 8.68291667,3.742875 8.68291667,3.742875 C8.68291667,3.742875 8.638625,3.96858333 8.638625,3.96858333 C8.638625,3.96858333 10.1373333,3.24241667 10.1373333,3.24241667 C10.1373333,3.24241667 10.181625,3.01670833 10.181625,3.01670833 C10.181625,3.01670833 9.97445833,3.11733333 9.97445833,3.11733333 C9.97445833,3.11733333 9.38566667,1.902125 9.38566667,1.902125 C9.38566667,1.902125 9.23225,2.14670833 9.23225,2.14670833" id="path118" fill="#FFFFFF" fill-rule="nonzero"></path>
                    <path d="M9.97816667,3.32304167 C9.97816667,3.32304167 10.3807083,3.16583333 10.3807083,3.16583333 C10.3704167,3.235375 10.3682917,3.30366667 10.3742917,3.37016667 C10.3805833,3.43641667 10.3950833,3.50008333 10.4188333,3.56091667 C10.4559167,3.6555 10.525,3.72175 10.626125,3.758875 C10.7273333,3.79570833 10.8315,3.79358333 10.9381667,3.75175 C11.07,3.700375 11.18975,3.58970833 11.2978333,3.41975 C11.406125,3.24958333 11.4907083,3.04016667 11.5514167,2.79095833 C11.5514167,2.79095833 11.4778333,2.770375 11.4778333,2.770375 C11.4323333,2.95229167 11.3602917,3.109 11.2613333,3.24070833 C11.1622083,3.37229167 11.04625,3.46391667 10.912875,3.516 C10.8385833,3.54495833 10.7618333,3.53670833 10.6825833,3.49075 C10.6032083,3.44529167 10.5452083,3.375 10.508375,3.28029167 C10.4815417,3.211875 10.467875,3.16241667 10.4664167,3.13229167 C10.4664167,3.13229167 10.6224583,3.07158333 10.6224583,3.07158333 C10.6224583,3.07158333 10.684,2.84870833 10.684,2.84870833 C10.684,2.84870833 10.4692917,2.93241667 10.4692917,2.93241667 C10.4692917,2.93241667 9.97829167,1.67466667 9.97829167,1.67466667 C9.97829167,1.67466667 9.80666667,1.90641667 9.80666667,1.90641667 C9.80666667,1.90641667 10.2416667,3.021125 10.2416667,3.021125 C10.2416667,3.021125 10.039125,3.10029167 10.039125,3.10029167 C10.039125,3.10029167 9.97816667,3.32304167 9.97816667,3.32304167" id="path120" fill="#FFFFFF" fill-rule="nonzero"></path>
                    <path d="M10.77575,1.51229167 C10.7920833,1.48475 10.81675,1.46608333 10.8497083,1.45604167 C10.9163333,1.43633333 10.9870833,1.43954167 11.0619583,1.466 C11.1367083,1.49220833 11.2035833,1.538125 11.2616667,1.60383333 C11.1265417,1.64433333 11.0380833,1.68670833 10.9959167,1.731375 C10.9395833,1.73345833 10.889625,1.72170833 10.846875,1.69629167 C10.8043333,1.67066667 10.7767083,1.63675 10.7635,1.594125 C10.7554583,1.56670833 10.75925,1.53920833 10.77575,1.51229167 L10.77575,1.51229167 Z M12.0454583,2.61741667 C12.0454583,2.61741667 12.12425,2.40045833 12.12425,2.40045833 C12.12425,2.40045833 11.8605,2.47970833 11.8605,2.47970833 C11.8605,2.47970833 11.7375417,2.07 11.7375417,2.07 C11.7375417,2.07 11.1654167,2.24170833 11.1654167,2.24170833 C11.1205417,2.25520833 11.0774167,2.24954167 11.0357083,2.22470833 C10.9940417,2.19991667 10.9660417,2.16283333 10.9512917,2.11404167 C10.9354583,2.061125 10.9449167,2.00916667 10.9795,1.95804167 C11.01425,1.906875 11.0640833,1.87179167 11.1285833,1.85241667 C11.1285833,1.85241667 11.3087917,1.81429167 11.3087917,1.81429167 C11.3062917,1.828 11.3050417,1.84108333 11.304625,1.85408333 C11.3042083,1.86683333 11.3054583,1.87816667 11.308375,1.88775 C11.3197083,1.92541667 11.346875,1.952 11.3902083,1.96866667 C11.4340417,1.986 11.4809167,1.98670833 11.5319583,1.97158333 C11.58475,1.9555 11.6235833,1.92220833 11.64875,1.87070833 C11.6737917,1.81920833 11.6780417,1.765375 11.6607917,1.70854167 C11.6497083,1.67120833 11.6258333,1.64029167 11.5900417,1.61595833 C11.5534583,1.591375 11.5106667,1.57816667 11.460625,1.57604167 C11.460625,1.57604167 11.692,1.12333333 11.692,1.12333333 C11.692,1.12333333 11.5487083,1.07041667 11.5487083,1.07041667 C11.5487083,1.07041667 11.4270417,1.41054167 11.4270417,1.41054167 C11.3538333,1.3515 11.274125,1.313 11.188125,1.293875 C11.1020417,1.27483333 11.021,1.27720833 10.9443333,1.299875 C10.8506667,1.32825 10.765875,1.387875 10.6902917,1.47858333 C10.6143333,1.56941667 10.5854167,1.645 10.6035833,1.70570833 C10.6100833,1.72720833 10.6188333,1.74683333 10.6295833,1.765 C10.6402083,1.78308333 10.6530833,1.799375 10.667625,1.8145 C10.5701667,1.85204167 10.495875,1.90804167 10.4445,1.98233333 C10.39325,2.0565 10.378125,2.12891667 10.399625,2.19954167 C10.4070417,2.22491667 10.4270417,2.253875 10.4589167,2.285875 C10.4910417,2.317875 10.532375,2.35108333 10.5832917,2.38483333 C10.5832917,2.38483333 10.73625,2.14675 10.73625,2.14675 C10.7015,2.13125 10.6727917,2.114375 10.6499167,2.09570833 C10.6270833,2.07683333 10.6131667,2.058625 10.60775,2.04079167 C10.5995833,2.013625 10.6069167,1.98516667 10.629125,1.95645833 C10.6509583,1.92704167 10.6828333,1.906375 10.7242083,1.893875 C10.7242083,1.893875 10.8693333,1.94629167 10.8693333,1.94629167 C10.8335417,1.99979167 10.811125,2.05758333 10.8015417,2.119 C10.792,2.18075 10.795875,2.240875 10.8135,2.29979167 C10.83425,2.36833333 10.8848333,2.41745833 10.965,2.44675 C11.0455833,2.47604167 11.13275,2.476625 11.226625,2.44841667 C11.226625,2.44841667 11.5644167,2.346875 11.5644167,2.346875 C11.5644167,2.346875 11.6257083,2.55058333 11.6257083,2.55058333 C11.6257083,2.55058333 10.5178333,2.88333333 10.5178333,2.88333333 C10.5178333,2.88333333 10.4390833,3.10041667 10.4390833,3.10041667 C10.4390833,3.10041667 12.045375,2.61766667 12.045375,2.61766667" id="path122" fill="#FFFFFF" fill-rule="nonzero"></path>
                    <path d="M12.1735833,2.30233333 C12.20975,2.25720833 12.2594583,2.22579167 12.3226667,2.20829167 C12.3226667,2.20829167 12.3689583,2.46483333 12.3689583,2.46483333 C12.3740417,2.49283333 12.3722917,2.51883333 12.3643333,2.54208333 C12.3562083,2.56525 12.3441667,2.57833333 12.3279583,2.58129167 C12.282125,2.58979167 12.2400833,2.58045833 12.2022917,2.554125 C12.1645,2.52766667 12.141125,2.49141667 12.13275,2.44533333 C12.123625,2.39491667 12.1373333,2.34720833 12.1735833,2.30233333 Z M12.657625,2.506875 C12.657625,2.506875 13.3959167,2.37270833 13.3959167,2.37270833 C13.3959167,2.37270833 13.4984583,2.166 13.4984583,2.166 C13.4984583,2.166 13.2725,2.207125 13.2725,2.207125 C13.2725,2.207125 13.0316667,0.879458333 13.0316667,0.879458333 C13.0316667,0.879458333 12.8170833,1.07445833 12.8170833,1.07445833 C12.8170833,1.07445833 12.8885417,1.46716667 12.8885417,1.46716667 C12.8885417,1.46716667 12.4522083,1.54654167 12.4522083,1.54654167 C12.4522083,1.54654167 12.4249583,1.39533333 12.4249583,1.39533333 C12.4186667,1.36120833 12.4042917,1.33441667 12.3822917,1.31458333 C12.359875,1.2945 12.3369583,1.28704167 12.3125,1.29129167 C12.2403333,1.30429167 12.1680417,1.36745833 12.09625,1.47991667 C12.0242917,1.59316667 11.995375,1.6885 12.0096667,1.76691667 C12.0134167,1.787 12.0267917,1.80258333 12.0506667,1.81383333 C12.0745,1.82491667 12.10025,1.828125 12.1285,1.823125 C12.1285,1.823125 12.2485833,1.80095833 12.2485833,1.80095833 C12.2485833,1.80095833 12.3005833,2.087375 12.3005833,2.087375 C12.186375,2.14170833 12.0987083,2.21466667 12.038,2.30658333 C11.9772917,2.39883333 11.9553333,2.49095833 11.9724583,2.58354167 C11.982625,2.641875 12.0155833,2.687375 12.0699167,2.72020833 C12.1247083,2.75291667 12.1852917,2.76329167 12.2513333,2.75125 C12.3417917,2.73508333 12.4232917,2.66975 12.4957083,2.55566667 C12.5680833,2.44179167 12.5957083,2.33658333 12.57825,2.23995833 C12.57825,2.23995833 12.4905,1.757375 12.4905,1.757375 C12.4905,1.757375 12.9265417,1.67820833 12.9265417,1.67820833 C12.9265417,1.67820833 13.0305,2.25083333 13.0305,2.25083333 C13.0305,2.25083333 12.745,2.30279167 12.745,2.30279167 C12.745,2.30279167 12.657625,2.506875 12.657625,2.506875" id="path124" fill="#FFFFFF" fill-rule="nonzero"></path>
                    <path d="M13.0316667,3.126625 C13.0952083,3.173375 13.1664167,3.19204167 13.2453333,3.182125 C13.326375,3.17183333 13.3985417,3.14091667 13.4618333,3.08883333 C13.525375,3.036625 13.5696667,2.97058333 13.5945833,2.89158333 C13.5945833,2.89158333 13.5435833,2.85154167 13.5435833,2.85154167 C13.51925,2.88966667 13.491,2.91979167 13.459,2.94270833 C13.427,2.96529167 13.3936667,2.978625 13.3592917,2.982875 C13.2889167,2.99170833 13.225,2.97379167 13.1682083,2.929375 C13.1112917,2.8845 13.0784583,2.82683333 13.0695833,2.755875 C13.06475,2.71725 13.07125,2.673875 13.0888333,2.62616667 C13.1064167,2.57870833 13.135,2.52958333 13.1735417,2.47958333 C13.1735417,2.47958333 13.1067917,2.43825 13.1067917,2.43825 C13.0378333,2.51254167 12.987125,2.59454167 12.95525,2.683125 C12.9227917,2.77145833 12.912125,2.858625 12.9226667,2.94379167 C12.932,3.019 12.968375,3.07970833 13.0316667,3.126625" id="path126" fill="#FFFFFF" fill-rule="nonzero"></path>
                    <path d="M13.6100417,1.36120833 C13.6463333,1.32591667 13.6919167,1.30629167 13.7472917,1.30216667 C13.8224167,1.29625 13.9037917,1.30866667 13.9910833,1.33925 C14.0785833,1.36958333 14.1652917,1.416125 14.251875,1.47945833 C14.2036667,1.54616667 14.1501667,1.59958333 14.0917083,1.63866667 C14.033125,1.677875 13.9744167,1.69958333 13.91525,1.70408333 C13.8215833,1.71083333 13.7404583,1.692875 13.6717083,1.65 C13.60275,1.607 13.565875,1.55183333 13.5609167,1.48475 C13.5575833,1.437875 13.5739167,1.396875 13.6100417,1.36120833 L13.6100417,1.36120833 Z M14.650125,2.28045833 C14.650125,2.28045833 14.7737917,2.08583333 14.7737917,2.08583333 C14.7737917,2.08583333 14.5442917,2.10283333 14.5442917,2.10283333 C14.5442917,2.10283333 14.4439167,0.75625 14.4439167,0.75625 C14.4439167,0.75625 14.210875,0.92775 14.210875,0.92775 C14.210875,0.92775 14.2339167,1.23483333 14.2339167,1.23483333 C14.1709583,1.19020833 14.1069583,1.15666667 14.04175,1.13479167 C13.9766667,1.11283333 13.9145417,1.10408333 13.855375,1.10858333 C13.7414167,1.11683333 13.63025,1.1785 13.5220833,1.29308333 C13.4135417,1.408125 13.3634583,1.51725 13.37125,1.62141667 C13.377625,1.70904167 13.4205,1.78179167 13.4992917,1.83933333 C13.578625,1.89733333 13.67125,1.922 13.7771667,1.91420833 C13.8710833,1.90725 13.9608333,1.87475 14.0465833,1.817125 C14.1323333,1.7595 14.2034583,1.68258333 14.26,1.58608333 C14.26,1.58608333 14.2998333,2.121125 14.2998333,2.121125 C14.2998333,2.121125 13.3185833,2.19425 13.3185833,2.19425 C13.3185833,2.19425 13.1946667,2.38866667 13.1946667,2.38866667 C13.1946667,2.38866667 14.650125,2.28045833 14.650125,2.28045833" id="path128" fill="#FFFFFF" fill-rule="nonzero"></path>
                    <path d="M14.5019167,2.295 C14.5019167,2.295 14.933375,2.28804167 14.933375,2.28804167 C14.89925,2.34979167 14.8735833,2.41320833 14.856125,2.47758333 C14.83875,2.54208333 14.830625,2.60716667 14.8316667,2.67245833 C14.8333333,2.774625 14.875,2.8605 14.957125,2.93079167 C15.0389583,3.00058333 15.1374583,3.03483333 15.2519167,3.03308333 C15.3935417,3.03058333 15.544125,2.96883333 15.7052083,2.84691667 C15.8657083,2.72466667 16.0179583,2.55733333 16.1620833,2.34470833 C16.1620833,2.34470833 16.0999583,2.29983333 16.0999583,2.29983333 C15.994,2.45433333 15.8714167,2.57633333 15.7329583,2.665375 C15.5939583,2.75433333 15.4535417,2.79979167 15.3099167,2.80241667 C15.2300417,2.80325 15.1612083,2.768875 15.1025,2.69858333 C15.0440417,2.62770833 15.0139167,2.54183333 15.01225,2.43979167 C15.011,2.36633333 15.0151667,2.31520833 15.025125,2.286625 C15.025125,2.286625 15.1930833,2.28370833 15.1930833,2.28370833 C15.1930833,2.28370833 15.3283333,2.09683333 15.3283333,2.09683333 C15.3283333,2.09683333 15.098,2.101 15.098,2.101 C15.098,2.101 15.0760417,0.751625 15.0760417,0.751625 C15.0760417,0.751625 14.8341667,0.909166667 14.8341667,0.909166667 C14.8341667,0.909166667 14.853625,2.10479167 14.853625,2.10479167 C14.853625,2.10479167 14.6363333,2.108125 14.6363333,2.108125 C14.6363333,2.108125 14.5019167,2.294875 14.5019167,2.294875" id="path130" fill="#FFFFFF" fill-rule="nonzero"></path>
                    <path d="M16.44575,2.35545833 C16.44575,2.35545833 16.595875,2.18008333 16.595875,2.18008333 C16.595875,2.18008333 16.3665,2.16458333 16.3665,2.16458333 C16.3665,2.16458333 16.4564167,0.817916667 16.4564167,0.817916667 C16.4564167,0.817916667 16.201625,0.955041667 16.201625,0.955041667 C16.201625,0.955041667 16.156875,1.6285 16.156875,1.6285 C16.156875,1.6285 15.6820833,1.59683333 15.6820833,1.59683333 C15.6389583,1.59391667 15.6043333,1.57204167 15.5771667,1.53141667 C15.550375,1.49041667 15.5383333,1.44270833 15.5423333,1.38766667 C15.5476667,1.30391667 15.580375,1.21816667 15.6394167,1.131125 C15.6985,1.04395833 15.779875,0.962458333 15.8830833,0.887458333 C15.8830833,0.887458333 15.7962917,0.804791667 15.7962917,0.804791667 C15.6442917,0.938041667 15.5253333,1.06441667 15.4401667,1.18358333 C15.3555,1.30320833 15.3099167,1.40679167 15.304,1.49433333 C15.2985833,1.58220833 15.3204167,1.65933333 15.370375,1.72629167 C15.4200833,1.793125 15.4829167,1.82904167 15.5582917,1.834 C15.5582917,1.834 16.1407917,1.872875 16.1407917,1.872875 C16.1407917,1.872875 16.12225,2.14841667 16.12225,2.14841667 C16.12225,2.14841667 15.1570833,2.08416667 15.1570833,2.08416667 C15.1570833,2.08416667 15.0072917,2.25933333 15.0072917,2.25933333 C15.0072917,2.25933333 16.44575,2.35545833 16.44575,2.35545833" id="path132" fill="#FFFFFF" fill-rule="nonzero"></path>
                    <path d="M17.4030417,1.57404167 C17.4377917,1.55091667 17.4764167,1.54370833 17.5186667,1.55233333 C17.5807917,1.56495833 17.6395,1.594375 17.6957083,1.641625 C17.7517083,1.6885 17.7995417,1.74825 17.839,1.821 C17.8035833,1.86166667 17.7628333,1.89116667 17.7160417,1.90958333 C17.66975,1.92825 17.6255833,1.93333333 17.5834167,1.92458333 C17.5052083,1.908875 17.4420417,1.87641667 17.3939583,1.82670833 C17.3455417,1.77733333 17.326875,1.72595833 17.33775,1.67195833 C17.34625,1.62979167 17.3679583,1.59733333 17.4030417,1.57404167 L17.4030417,1.57404167 Z M18.5114167,2.74004167 C18.5114167,2.74004167 18.683375,2.58766667 18.683375,2.58766667 C18.683375,2.58766667 17.9625417,2.440875 17.9625417,2.440875 C17.9625417,2.440875 18.045,2.03466667 18.045,2.03466667 C18.066375,2.07483333 18.0945833,2.108125 18.13025,2.13458333 C18.1655833,2.16083333 18.2055,2.17866667 18.2496667,2.1875 C18.332125,2.20429167 18.428,2.16070833 18.5375,2.05654167 C18.64675,1.95245833 18.713375,1.84108333 18.7372083,1.72275 C18.7483333,1.66854167 18.7484583,1.60808333 18.737625,1.54120833 C18.7273333,1.474125 18.7065417,1.40504167 18.6746667,1.33391667 C18.6746667,1.33391667 18.441625,1.47458333 18.441625,1.47458333 C18.4885,1.54475 18.52075,1.61254167 18.539875,1.67904167 C18.5590417,1.74541667 18.5632917,1.80470833 18.5526667,1.85691667 C18.54225,1.906875 18.5175833,1.94608333 18.478125,1.97491667 C18.4389167,2.00325 18.3957917,2.01270833 18.3495,2.0035 C18.3072083,1.99475 18.2640833,1.96958333 18.2201667,1.92825 C18.1763333,1.88716667 18.1364167,1.83270833 18.0997917,1.76445833 C18.0997917,1.76445833 18.23125,1.11825 18.23125,1.11825 C18.23125,1.11825 17.9609167,1.22020833 17.9609167,1.22020833 C17.9609167,1.22020833 17.8938333,1.55079167 17.8938333,1.55079167 C17.8666667,1.50979167 17.8325417,1.47591667 17.792125,1.448875 C17.751625,1.42191667 17.7077917,1.403625 17.659625,1.39370833 C17.569375,1.37529167 17.468375,1.40891667 17.357125,1.49504167 C17.24575,1.58091667 17.1798333,1.67479167 17.1589583,1.77695833 C17.1447917,1.847125 17.1622917,1.913125 17.2107917,1.975375 C17.2601667,2.0375 17.32525,2.07670833 17.4077917,2.093625 C17.4719167,2.10670833 17.539625,2.099625 17.6105833,2.072375 C17.6822917,2.04483333 17.7498333,2.001 17.8144583,1.94066667 C17.8144583,1.94066667 17.7223333,2.39208333 17.7223333,2.39208333 C17.7223333,2.39208333 16.9680833,2.23854167 16.9680833,2.23854167 C16.9680833,2.23854167 16.796125,2.391 16.796125,2.391 C16.796125,2.391 18.5112083,2.74004167 18.5112083,2.74004167" id="path134" fill="#FFFFFF" fill-rule="nonzero"></path>
                    <path d="M18.422,1.16833333 C18.422,1.16833333 18.4245,1.16875 18.4245,1.16875 C18.4245,1.16875 18.42575,1.16583333 18.42575,1.16583333 C18.42575,1.16583333 18.4228333,1.16541667 18.4228333,1.16541667 C18.4228333,1.16541667 18.422,1.16833333 18.422,1.16833333" id="path136" fill="#FFFFFF" fill-rule="nonzero"></path>
                    <path d="M19.1751667,2.17983333 C19.1751667,2.17983333 19.6118333,2.329125 19.6118333,2.329125 C19.6118333,2.329125 19.4229583,2.88025 19.4229583,2.88025 C19.4229583,2.88025 18.9864167,2.73083333 18.9864167,2.73083333 C18.9864167,2.73083333 19.1751667,2.17983333 19.1751667,2.17983333 L19.1751667,2.17983333 Z M19.68175,3.16416667 C19.68175,3.16416667 19.872125,3.033875 19.872125,3.033875 C19.872125,3.033875 19.6550417,2.95970833 19.6550417,2.95970833 C19.6550417,2.95970833 20.0921667,1.68258333 20.0921667,1.68258333 C20.0921667,1.68258333 19.81,1.74825 19.81,1.74825 C19.81,1.74825 19.6910833,2.09679167 19.6910833,2.09679167 C19.6910833,2.09679167 19.2547917,1.94741667 19.2547917,1.94741667 C19.2547917,1.94741667 19.3042917,1.80225 19.3042917,1.80225 C19.3157083,1.76954167 19.3165417,1.73904167 19.306375,1.71045833 C19.2967917,1.68225 19.28,1.66429167 19.2572083,1.656375 C19.1834167,1.631 19.085375,1.65175 18.963375,1.71791667 C18.841,1.78429167 18.7668333,1.85608333 18.74025,1.93358333 C18.7324583,1.95670833 18.7354167,1.98058333 18.7500417,2.00491667 C18.76425,2.029375 18.785125,2.04625 18.8121667,2.05545833 C18.8121667,2.05545833 18.9425833,2.100125 18.9425833,2.100125 C18.9425833,2.100125 18.7540833,2.65133333 18.7540833,2.65133333 C18.7540833,2.65133333 18.44925,2.54679167 18.44925,2.54679167 C18.44925,2.54679167 18.2585833,2.67708333 18.2585833,2.67708333 C18.2585833,2.67708333 19.6817083,3.16416667 19.6817083,3.16416667" id="path138" fill="#FFFFFF" fill-rule="nonzero"></path>
                    <path d="M19.000625,3.64454167 C19.0336667,3.715875 19.0870833,3.76666667 19.161375,3.79641667 C19.2369583,3.82675 19.3157083,3.83479167 19.39675,3.81991667 C19.4772917,3.80516667 19.5479167,3.769125 19.6081667,3.71220833 C19.6081667,3.71220833 19.5826667,3.65220833 19.5826667,3.65220833 C19.5432083,3.67383333 19.503875,3.68691667 19.4649167,3.69083333 C19.4254583,3.69508333 19.3894167,3.69070833 19.3574167,3.67758333 C19.2907083,3.65091667 19.2433333,3.60425 19.21475,3.53775 C19.1864167,3.47079167 19.1853333,3.40441667 19.2118333,3.33791667 C19.2268333,3.30175 19.2530417,3.26704167 19.2917917,3.23408333 C19.3302917,3.201125 19.3790833,3.17195833 19.4377917,3.14716667 C19.4377917,3.14716667 19.3989167,3.07866667 19.3989167,3.07866667 C19.3025417,3.11054167 19.2190417,3.15741667 19.1477083,3.21920833 C19.0771667,3.28133333 19.0255833,3.35170833 18.9932083,3.43158333 C18.9654583,3.50183333 18.9677083,3.57270833 19.0005417,3.64454167" id="path140" fill="#FFFFFF" fill-rule="nonzero"></path>
                    <path d="M21.0546667,3.798875 C21.0546667,3.798875 21.2573333,3.69245833 21.2573333,3.69245833 C21.2573333,3.69245833 21.0504167,3.59466667 21.0504167,3.59466667 C21.0504167,3.59466667 21.6267917,2.37508333 21.6267917,2.37508333 C21.6267917,2.37508333 21.3387083,2.40766667 21.3387083,2.40766667 C21.3387083,2.40766667 21.0631667,2.991375 21.0631667,2.991375 C21.0631667,2.991375 20.6743333,2.80745833 20.6743333,2.80745833 C20.7602083,2.78420833 20.8350833,2.74958333 20.89925,2.70258333 C20.963125,2.65558333 21.01025,2.60054167 21.040125,2.53783333 C21.07225,2.46945833 21.0741667,2.39870833 21.0454583,2.32475 C21.0162917,2.25175 20.9660833,2.19779167 20.8939167,2.16354167 C20.7734583,2.10670833 20.6232083,2.1215 20.4434583,2.207375 C20.2634583,2.29345833 20.0914583,2.43270833 19.9285,2.625125 C19.9285,2.625125 19.9982917,2.69220833 19.9982917,2.69220833 C20.1139167,2.556375 20.23675,2.45883333 20.365625,2.39929167 C20.4945833,2.340125 20.6035833,2.33125 20.6926667,2.37329167 C20.7312917,2.39183333 20.757375,2.42208333 20.770125,2.46458333 C20.783125,2.507125 20.77925,2.54954167 20.7591667,2.59229167 C20.7283333,2.657 20.667125,2.71429167 20.5744167,2.764 C20.4818333,2.813375 20.3692917,2.84941667 20.2359167,2.87304167 C20.2359167,2.87304167 20.9578333,3.21425 20.9578333,3.21425 C20.9578333,3.21425 20.8276667,3.48966667 20.8276667,3.48966667 C20.8276667,3.48966667 19.6917917,2.952875 19.6917917,2.952875 C19.6917917,2.952875 19.48875,3.05929167 19.48875,3.05929167 C19.48875,3.05929167 21.0546667,3.798875 21.0546667,3.798875" id="path142" fill="#FFFFFF" fill-rule="nonzero"></path>
                    <path d="M21.485875,4.0715 C21.485875,4.0715 21.698125,3.97995833 21.698125,3.97995833 C21.698125,3.97995833 21.49925,3.86529167 21.49925,3.86529167 C21.49925,3.86529167 22.1735417,2.695875 22.1735417,2.695875 C22.1735417,2.695875 21.8835833,2.706 21.8835833,2.706 C21.8835833,2.706 21.2860417,3.74233333 21.2860417,3.74233333 C21.2860417,3.74233333 21.0967083,3.63341667 21.0967083,3.63341667 C21.0967083,3.63341667 20.88425,3.72470833 20.88425,3.72470833 C20.88425,3.72470833 21.485875,4.0715 21.485875,4.0715" id="path144" fill="#FFFFFF" fill-rule="nonzero"></path>
                    <path d="M6.78,13.1905417 C6.78,12.8020833 7.68504167,12.60425 7.921625,12.5437917 C8.9335,12.284625 9.9875,12.1600417 11.0273333,12.088 C11.991,12.0209167 13.163375,12.178 14.0885417,12.4195417 C13.545,13.1434167 13.0191667,13.8700417 12.64225,14.6926667 C9.20916667,14.4665 6.78,13.776375 6.78,13.1905417 L6.78,13.1905417 Z M17.3577083,14.7003333 C16.9807917,13.8777083 16.455,13.151 15.9114167,12.4272083 C16.8365833,12.1856667 18.0089583,12.0285833 18.972625,12.0956667 C20.0124583,12.1677083 21.0665833,12.2923333 22.0783333,12.5513333 C22.3149167,12.6119167 23.22,12.80975 23.22,13.1982083 C23.22,13.7839167 20.7907917,14.4740417 17.3577083,14.7003333" id="path146" fill="#FFFFFF" fill-rule="nonzero"></path>
                    <path d="M6.78,13.1905417 C6.78,12.8020833 7.68504167,12.60425 7.921625,12.5437917 C8.9335,12.284625 9.9875,12.1600417 11.0273333,12.088 C11.991,12.0209167 13.163375,12.178 14.0885417,12.4195417 C13.545,13.1434167 13.0191667,13.8700417 12.64225,14.6926667 C9.20916667,14.4665 6.78,13.776375 6.78,13.1905417 L6.78,13.1905417 Z M17.3577083,14.7003333 C16.9807917,13.8777083 16.455,13.151 15.9114167,12.4272083 C16.8365833,12.1856667 18.0089583,12.0285833 18.972625,12.0956667 C20.0124583,12.1677083 21.0665833,12.2923333 22.0783333,12.5513333 C22.3149167,12.6119167 23.22,12.80975 23.22,13.1982083 C23.22,13.7839167 20.7907917,14.4740417 17.3577083,14.7003333 Z" id="path148" stroke="#1F1917" stroke-width="0.5"></path>
                    <path d="M14.0897083,12.4232917 C13.5499583,13.1429583 13.027875,13.8795 12.653,14.6990417 C12.6242917,14.762125 12.5942917,14.8245833 12.567375,14.888625 C12.37875,15.3368333 12.2274583,15.7955833 12.1397083,16.2397917 C11.7442917,18.2360833 12.374375,20.2619167 13.4785833,21.9207917 C14.1235833,22.89025 14.810875,23.8771667 14.9864167,25.0554167 C14.9864167,25.0554167 15.0242083,25.0554167 15.0242083,25.0554167 C15.1997083,23.8771667 15.887,22.89025 16.531875,21.9207917 C17.6359583,20.2619167 18.2663333,18.2360833 17.871125,16.2397917 C17.782875,15.7955833 17.6317083,15.3368333 17.4430833,14.888625 C17.4161667,14.8249583 17.3862917,14.7629583 17.3577083,14.7003333 C16.9807917,13.8777083 16.455,13.151 15.9114167,12.4272083 C15.572,12.5156667 15.2647917,12.6154583 15.015,12.720125 C14.7645833,12.61525 14.4569167,12.5155417 14.116875,12.4268333 C14.116875,12.4268333 14.0925417,12.4209583 14.0897083,12.4235" id="path150" fill="#FFFFFF" fill-rule="nonzero"></path>
                    <path d="M14.0897083,12.4232917 C13.5499583,13.1429583 13.027875,13.8795 12.653,14.6990417 C12.6242917,14.762125 12.5942917,14.8245833 12.567375,14.888625 C12.37875,15.3368333 12.2274583,15.7955833 12.1397083,16.2397917 C11.7442917,18.2360833 12.374375,20.2619167 13.4785833,21.9207917 C14.1235833,22.89025 14.810875,23.8771667 14.9864167,25.0554167 C14.9864167,25.0554167 15.0242083,25.0554167 15.0242083,25.0554167 C15.1997083,23.8771667 15.887,22.89025 16.531875,21.9207917 C17.6359583,20.2619167 18.2663333,18.2360833 17.871125,16.2397917 C17.782875,15.7955833 17.6317083,15.3368333 17.4430833,14.888625 C17.4161667,14.8249583 17.3862917,14.7629583 17.3577083,14.7003333 C16.9807917,13.8777083 16.455,13.151 15.9114167,12.4272083 C15.572,12.5156667 15.2647917,12.6154583 15.015,12.720125 C14.7645833,12.61525 14.4569167,12.5155417 14.116875,12.4268333 C14.116875,12.4268333 14.0925417,12.4209583 14.0897083,12.4235 L14.0897083,12.4232917 Z" id="path152" stroke="#1F1917" stroke-width="0.5"></path>
                    <path d="M14.0885417,12.4195417 C13.163375,12.178 11.991,12.0209167 11.0273333,12.088 C9.9875,12.1600417 8.9335,12.284625 7.921625,12.5437917 C7.7075,12.5984583 6.94629167,12.7657083 6.80325,13.0848333 C6.80325,13.0848333 6.80325,13.0848333 6.80325,13.0848333 C7.58833333,10.206 10.960125,8.04116667 15.002,8.04116667 C19.04325,8.04116667 22.4154167,10.2057917 23.2,13.0845833 C23.2,13.0845833 23.1925833,13.0845833 23.1925833,13.0845833 C23.0407083,12.7706667 22.2905833,12.6056667 22.0783333,12.5513333 C21.0665833,12.2923333 20.0124583,12.1677083 18.972625,12.0956667 C18.0089583,12.0285833 16.8365833,12.1856667 15.9114167,12.4272083 C15.572,12.5156667 15.2647917,12.6154583 15.015,12.720125 C14.7645833,12.61525 14.4569167,12.5155417 14.116875,12.4268333 C14.116875,12.4268333 14.0925417,12.4209583 14.0897083,12.4235 L14.0884583,12.41975 L14.0885417,12.4195417 Z" id="path154" fill="#781F19" fill-rule="nonzero"></path>
                    <path d="M14.0885417,12.4195417 C13.163375,12.178 11.991,12.0209167 11.0273333,12.088 C9.9875,12.1600417 8.9335,12.284625 7.921625,12.5437917 C7.7075,12.5984583 6.94629167,12.7657083 6.80325,13.0848333 C6.80325,13.0848333 6.80325,13.0848333 6.80325,13.0848333 C7.58833333,10.206 10.960125,8.04116667 15.002,8.04116667 C19.04325,8.04116667 22.4154167,10.2057917 23.2,13.0845833 C23.2,13.0845833 23.1925833,13.0845833 23.1925833,13.0845833 C23.0407083,12.7706667 22.2905833,12.6056667 22.0783333,12.5513333 C21.0665833,12.2923333 20.0124583,12.1677083 18.972625,12.0956667 C18.0089583,12.0285833 16.8365833,12.1856667 15.9114167,12.4272083 C15.572,12.5156667 15.2647917,12.6154583 15.015,12.720125 C14.7645833,12.61525 14.4569167,12.5155417 14.116875,12.4268333 C14.116875,12.4268333 14.0925417,12.4209583 14.0897083,12.4235" id="path156" stroke="#1F1917" stroke-width="0.5"></path>
                    <path d="M15.1503333,14.83675 C15.0857083,14.7710833 15.0279583,14.698125 15.0258333,14.6388333 C15.0258333,14.6388333 15.0175833,14.6388333 15.0175833,14.6388333 C15.0155,14.7012917 14.9510833,14.778875 14.8824583,14.8472917 C14.8824583,14.8472917 14.8824583,12.6979167 14.8824583,12.6979167 C14.8824583,12.6979167 14.9601667,12.6979167 14.9601667,12.6979167 C14.9785,12.7053333 14.99725,12.7126667 15.015,12.720125 C15.0327083,12.7126667 15.0514583,12.7053333 15.0696667,12.6979167 C15.0696667,12.6979167 15.1503333,12.6979167 15.1503333,12.6979167 C15.1503333,12.6979167 15.1503333,14.83675 15.1503333,14.83675" id="path158" fill="#BDA345" fill-rule="nonzero"></path>
                    <path d="M15.1503333,14.83675 C15.0857083,14.7710833 15.0279583,14.698125 15.0258333,14.6388333 C15.0258333,14.6388333 15.0175833,14.6388333 15.0175833,14.6388333 C15.0155,14.7012917 14.9510833,14.778875 14.8824583,14.8472917 C14.8824583,14.8472917 14.8824583,12.6979167 14.8824583,12.6979167 C14.8824583,12.6979167 14.9601667,12.6979167 14.9601667,12.6979167 C14.9785,12.7053333 14.99725,12.7126667 15.015,12.720125 C15.0327083,12.7126667 15.0514583,12.7053333 15.0696667,12.6979167 C15.0696667,12.6979167 15.1503333,12.6979167 15.1503333,12.6979167 C15.1503333,12.6979167 15.1503333,14.83675 15.1503333,14.83675 Z" id="path160" stroke="#1F1917" stroke-width="0.5"></path>
                    <path d="M15.0501667,16.3763333 C15.0501667,16.3763333 14.9917083,16.3763333 14.9917083,16.3763333 C14.6960833,16.3763333 14.449125,16.163625 14.3829583,15.8647917 C14.2972083,15.4783333 14.4740417,15.23125 14.7365833,14.9819167 C14.8057917,14.916625 15.0135833,14.7522083 15.0175833,14.6388333 C15.0175833,14.6388333 15.0258333,14.6388333 15.0258333,14.6388333 C15.03,14.7522083 15.237625,14.916625 15.3067083,14.9819167 C15.569375,15.23125 15.7463333,15.4783333 15.6605833,15.8647917 C15.5942083,16.163625 15.3472083,16.3763333 15.0517083,16.3763333 C15.0517083,16.3763333 14.993375,16.3763333 14.993375,16.3763333 L15.0501667,16.3763333 L15.0501667,16.3763333 Z" id="path162" fill="#D9261C" fill-rule="nonzero"></path>
                    <path d="M15.0501667,16.3763333 C15.0501667,16.3763333 14.9917083,16.3763333 14.9917083,16.3763333 C14.6960833,16.3763333 14.449125,16.163625 14.3829583,15.8647917 C14.2972083,15.4783333 14.4740417,15.23125 14.7365833,14.9819167 C14.8057917,14.916625 15.0135833,14.7522083 15.0175833,14.6388333 C15.0175833,14.6388333 15.0258333,14.6388333 15.0258333,14.6388333 C15.03,14.7522083 15.237625,14.916625 15.3067083,14.9819167 C15.569375,15.23125 15.7463333,15.4783333 15.6605833,15.8647917 C15.5942083,16.163625 15.3472083,16.3763333 15.0517083,16.3763333 C15.0517083,16.3763333 14.993375,16.3763333 14.993375,16.3763333" id="path164" stroke="#1F1917" stroke-width="0.5" stroke-linejoin="round"></path>
                    <path d="M14.3829583,15.8647917 C14.427375,16.0658333 14.5547083,16.22575 14.7226667,16.3104167 C14.7226667,16.3104167 14.7453333,16.3460833 14.7453333,16.3460833 C14.7453333,16.3460833 14.009875,16.9420833 13.0899167,16.2265833 C13.1338333,16.2466667 13.4897083,15.9394583 13.5370833,15.9055417 C13.7808333,15.7310833 14.0385833,15.6603333 14.3422083,15.7155 C14.3422083,15.7155 14.3666667,15.7537917 14.3666667,15.7537917 C14.3704167,15.7896667 14.37425,15.8261667 14.3829583,15.8647917" id="path166" fill="#D9261C" fill-rule="nonzero"></path>
                    <path d="M14.3829583,15.8647917 C14.427375,16.0658333 14.5547083,16.22575 14.7226667,16.3104167 C14.7226667,16.3104167 14.7453333,16.3460833 14.7453333,16.3460833 C14.7453333,16.3460833 14.009875,16.9420833 13.0899167,16.2265833 C13.1338333,16.2466667 13.4897083,15.9394583 13.5370833,15.9055417 C13.7808333,15.7310833 14.0385833,15.6603333 14.3422083,15.7155 C14.3422083,15.7155 14.3666667,15.7537917 14.3666667,15.7537917 C14.3704167,15.7896667 14.37425,15.8261667 14.3829583,15.8647917 L14.3829583,15.8647917 Z" id="path168" stroke="#1F1917" stroke-width="0.5" stroke-linejoin="round"></path>
                    <path d="M15.2534583,16.3525833 C15.2534583,16.3525833 15.2625417,16.3382917 15.2625417,16.3382917 C15.4595417,16.264375 15.6108333,16.0889583 15.6605833,15.8647917 C15.672375,15.8108333 15.6782917,15.7600417 15.6804167,15.711 C15.9699167,15.6667083 16.2181667,15.737375 16.4530833,15.9055417 C16.5002083,15.9394583 16.8562083,16.2466667 16.900125,16.2265833 C15.9801667,16.9420833 15.2534583,16.3525833 15.2534583,16.3525833" id="path170" fill="#D9261C" fill-rule="nonzero"></path>
                    <path d="M15.2534583,16.3525833 C15.2534583,16.3525833 15.2625417,16.3382917 15.2625417,16.3382917 C15.4595417,16.264375 15.6108333,16.0889583 15.6605833,15.8647917 C15.672375,15.8108333 15.6782917,15.7600417 15.6804167,15.711 C15.9699167,15.6667083 16.2181667,15.737375 16.4530833,15.9055417 C16.5002083,15.9394583 16.8562083,16.2466667 16.900125,16.2265833 C15.9801667,16.9420833 15.2534583,16.3525833 15.2534583,16.3525833 Z" id="path172" stroke="#1F1917" stroke-width="0.5" stroke-linejoin="round"></path>
                    <path d="M14.9834583,20.5706667 C14.9834583,20.5706667 13.092375,17.6832083 14.753375,16.405375 C14.753375,16.405375 15.2131667,16.405375 15.2131667,16.405375 C16.8741667,17.6832083 14.9830833,20.5706667 14.9830833,20.5706667 L14.9834583,20.5706667 Z" id="path174" fill="#D9261C" fill-rule="nonzero"></path>
                    <path d="M14.9834583,20.5706667 C14.9834583,20.5706667 13.092375,17.6832083 14.753375,16.405375 C14.753375,16.405375 15.2131667,16.405375 15.2131667,16.405375 C16.8741667,17.6832083 14.9830833,20.5706667 14.9830833,20.5706667" id="path176" stroke="#1F1917" stroke-width="0.5" stroke-linecap="round" stroke-linejoin="round"></path>
                    <path d="M14.5727917,19.813 C14.5727917,19.813 13.778,20.513125 13.778,20.513125 C13.8480417,20.451375 13.8185417,20.0437917 13.8200417,19.9512917 C13.823375,19.7297083 13.8109583,19.5077917 13.788875,19.2871667 C13.7598333,18.9952083 13.6975833,18.7120833 13.652,18.4230833 C13.5801667,17.9670417 13.634875,17.4895417 13.8870417,17.0942083 C14.072125,16.8037917 14.4181667,16.5529167 14.7355417,16.42075 C13.6373333,17.2876667 14.1332917,18.8725833 14.5727917,19.813" id="path178" fill="#D9261C" fill-rule="nonzero"></path>
                    <path d="M14.5727917,19.813 C14.5727917,19.813 13.778,20.513125 13.778,20.513125 C13.8480417,20.451375 13.8185417,20.0437917 13.8200417,19.9512917 C13.823375,19.7297083 13.8109583,19.5077917 13.788875,19.2871667 C13.7598333,18.9952083 13.6975833,18.7120833 13.652,18.4230833 C13.5801667,17.9670417 13.634875,17.4895417 13.8870417,17.0942083 C14.072125,16.8037917 14.4181667,16.5529167 14.7355417,16.42075 C13.6373333,17.2876667 14.1332917,18.8725833 14.5727917,19.813 L14.5727917,19.813 Z" id="path180" stroke="#1F1917" stroke-width="0.5" stroke-linejoin="round"></path>
                    <path d="M16.3235417,18.4230833 C16.2777083,18.7120833 16.2154583,18.9952083 16.1864167,19.2871667 C16.1642917,19.5077917 16.1515417,19.7297083 16.1553333,19.9512917 C16.1565833,20.0437917 16.127125,20.451375 16.197125,20.513125 C16.197125,20.513125 15.396375,19.8075417 15.396375,19.8075417 C15.8364167,18.863625 16.3305,17.2762083 15.2215417,16.4125833 C15.54375,16.54275 15.899625,16.7982083 16.088375,17.0942083 C16.3405417,17.4895417 16.3954583,17.9670417 16.3235417,18.4230833" id="path182" fill="#D9261C" fill-rule="nonzero"></path>
                    <path d="M16.3235417,18.4230833 C16.2777083,18.7120833 16.2154583,18.9952083 16.1864167,19.2871667 C16.1642917,19.5077917 16.1515417,19.7297083 16.1553333,19.9512917 C16.1565833,20.0437917 16.127125,20.451375 16.197125,20.513125 C16.197125,20.513125 15.396375,19.8075417 15.396375,19.8075417 C15.8364167,18.863625 16.3305,17.2762083 15.2215417,16.4125833 C15.54375,16.54275 15.899625,16.7982083 16.088375,17.0942083 C16.3405417,17.4895417 16.3954583,17.9670417 16.3235417,18.4230833 Z" id="path184" stroke="#1F1917" stroke-width="0.5" stroke-linejoin="round"></path>
                    <path d="M15.3349583,16.463375 C15.3349583,16.463375 15.3777083,16.431375 15.3777083,16.431375 C15.5642083,16.532 15.946625,16.6722083 16.424625,16.4962083 C16.424625,16.4962083 16.454625,16.5057917 16.454625,16.5057917 C16.454625,16.5057917 16.6190417,16.9547083 16.900125,16.9547083 C16.900125,16.9547083 16.5270417,17.1525417 16.034875,17.0195833 C15.8625417,16.7895 15.5963333,16.5895417 15.3349583,16.463375" id="path186" fill="#D9261C" fill-rule="nonzero"></path>
                    <path d="M15.3349583,16.463375 C15.3349583,16.463375 15.3777083,16.431375 15.3777083,16.431375 C15.5642083,16.532 15.946625,16.6722083 16.424625,16.4962083 C16.424625,16.4962083 16.454625,16.5057917 16.454625,16.5057917 C16.454625,16.5057917 16.6190417,16.9547083 16.900125,16.9547083 C16.900125,16.9547083 16.5270417,17.1525417 16.034875,17.0195833 C15.8625417,16.7895 15.5963333,16.5895417 15.3349583,16.463375 L15.3349583,16.463375 Z" id="path188" stroke="#1F1917" stroke-width="0.5" stroke-linejoin="round"></path>
                    <path d="M14.6000417,16.436 C14.6000417,16.436 14.625,16.4474167 14.625,16.4474167 C14.625,16.4474167 14.6143333,16.476375 14.6143333,16.476375 C14.3619583,16.602625 14.107875,16.7963333 13.94125,17.0185 C13.94125,17.0185 13.93875,17.01875 13.93875,17.01875 C13.4446667,17.153625 13.0701667,16.9547083 13.0701667,16.9547083 C13.3509167,16.9547083 13.5152917,16.5057917 13.5152917,16.5057917 C13.5152917,16.5057917 13.550375,16.489 13.550375,16.489 C14.0215417,16.66675 14.4035,16.538125 14.60025,16.436" id="path190" fill="#D9261C" fill-rule="nonzero"></path>
                    <path d="M14.6000417,16.436 C14.6000417,16.436 14.625,16.4474167 14.625,16.4474167 C14.625,16.4474167 14.6143333,16.476375 14.6143333,16.476375 C14.3619583,16.602625 14.107875,16.7963333 13.94125,17.0185 C13.94125,17.0185 13.93875,17.01875 13.93875,17.01875 C13.4446667,17.153625 13.0701667,16.9547083 13.0701667,16.9547083 C13.3509167,16.9547083 13.5152917,16.5057917 13.5152917,16.5057917 C13.5152917,16.5057917 13.550375,16.489 13.550375,16.489 C14.0215417,16.66675 14.4035,16.538125 14.60025,16.436 L14.6000417,16.436 Z" id="path192" stroke="#1F1917" stroke-width="0.5" stroke-linejoin="round"></path>
                    <path d="M14.5682917,19.8035417 C14.6509583,19.9809583 14.7312917,20.1352917 14.7992917,20.258375 C14.7992917,20.258375 14.4725,20.7112083 14.4725,20.7112083 C14.4725,20.7112083 14.2169167,20.149 14.2169167,20.149 C14.2169167,20.149 14.2169167,20.1264583 14.2169167,20.1264583 C14.2169167,20.1264583 14.5727917,19.813 14.5727917,19.813 C14.571125,19.8100833 14.569875,19.806625 14.5682917,19.8035417" id="path194" fill="#D9261C" fill-rule="nonzero"></path>
                    <path d="M14.5682917,19.8035417 C14.6509583,19.9809583 14.7312917,20.1352917 14.7992917,20.258375 C14.7992917,20.258375 14.4725,20.7112083 14.4725,20.7112083 C14.4725,20.7112083 14.2169167,20.149 14.2169167,20.149 C14.2169167,20.149 14.2169167,20.1264583 14.2169167,20.1264583 C14.2169167,20.1264583 14.5727917,19.813 14.5727917,19.813 C14.571125,19.8100833 14.569875,19.806625 14.5682917,19.8035417 L14.5682917,19.8035417 Z" id="path196" stroke="#1F1917" stroke-width="0.5"></path>
                    <path d="M15.396375,19.8075417 C15.396375,19.8075417 15.7870833,20.1518333 15.7870833,20.1518333 C15.7870833,20.1518333 15.533,20.7112083 15.533,20.7112083 C15.533,20.7112083 15.20075,20.2511667 15.20075,20.2511667 C15.20075,20.2511667 15.20075,20.1970833 15.20075,20.1970833 C15.2625417,20.082875 15.3322083,19.945625 15.4032083,19.7925417 C15.401125,19.797625 15.3985,19.8027083 15.396375,19.8075417" id="path198" fill="#D9261C" fill-rule="nonzero"></path>
                    <path d="M15.396375,19.8075417 C15.396375,19.8075417 15.7870833,20.1518333 15.7870833,20.1518333 C15.7870833,20.1518333 15.533,20.7112083 15.533,20.7112083 C15.533,20.7112083 15.20075,20.2511667 15.20075,20.2511667 C15.20075,20.2511667 15.20075,20.1970833 15.20075,20.1970833 C15.2625417,20.082875 15.3322083,19.945625 15.4032083,19.7925417 C15.401125,19.797625 15.3985,19.8027083 15.396375,19.8075417 L15.396375,19.8075417 Z" id="path200" stroke="#1F1917" stroke-width="0.5"></path>
                </g>
                <text id="Joy-of-Giving" font-family="LTRemark-Bold, LT Remark" font-size="18" font-weight="bold" fill="#000000">
                    <tspan x="36" y="21">JOY OF GIVING</tspan>
                </text>
            </g>
        </g>
    </g>
</svg>