<?xml version="1.0" encoding="UTF-8"?>
<svg width="48px" height="48px" viewBox="0 0 48 48" version="1.1" xmlns="http://www.w3.org/2000/svg" xmlns:xlink="http://www.w3.org/1999/xlink">
    <title>Icons / Twitter</title>
    <g id="Page-1" stroke="none" stroke-width="1" fill="none" fill-rule="evenodd">
        <g id="Giving-Opportunities---Stories-detail-page-(-Opt-1-)" transform="translate(-316.000000, -3183.000000)" fill-rule="nonzero">
            <g id="Group-2" transform="translate(0.000000, 2758.000000)">
                <g id="Group-16" transform="translate(0.000000, 48.000000)">
                    <g id="Icons-/-Twitter" transform="translate(316.000000, 377.000000)">
                        <circle id="Oval" fill="#8C191C" cx="24" cy="24" r="24"></circle>
                        <path d="M37,16.3661695 C36.0804511,16.7678403 35.092785,17.0393786 34.0543455,17.1614307 C35.1141668,16.5367036 35.9260786,15.5467324 36.3094281,14.3685023 C35.302684,14.9571149 34.2008932,15.3714979 33.0519173,15.5936504 C32.1168782,14.6125415 30.783529,14 29.3083848,14 C26.4769209,14 24.1805973,16.2595612 24.1805973,19.0484494 C24.1805973,19.4436038 24.2258101,19.829114 24.3127274,20.1992454 C20.0503392,19.9883747 16.2714572,17.978522 13.7420523,14.9245466 C13.3003829,15.6704136 13.0475748,16.5376159 13.0475748,17.4628793 C13.0475748,19.2141614 13.9530898,20.7593299 15.329004,21.6644576 C14.5144856,21.6396114 13.7178431,21.423188 13.0056718,21.0332792 L13.0056718,21.0970748 C13.0056718,23.5433308 14.7732102,25.5830939 17.1195129,26.0469963 C16.6885012,26.1632488 16.236174,26.2239816 15.7682242,26.2239816 C15.4373693,26.2239816 15.1163778,26.1931591 14.8028004,26.135098 C15.4554412,28.1401286 17.3494829,29.5996064 19.5930471,29.6408552 C17.8378215,30.9952886 15.6261644,31.8026704 13.2240572,31.8026704 C12.8103231,31.8026704 12.4014214,31.7783643 12,31.7307294 C14.2699771,33.1635551 16.9652066,34 19.861544,34 C29.2944172,34 34.4533176,26.3072612 34.4533176,19.6360331 C34.4533176,19.4170169 34.4484189,19.1996299 34.437695,18.9830248 C35.4428148,18.2673672 36.3104574,17.381253 37,16.3661695 L37,16.3661695 Z" id="Path" fill="#FFFFFF"></path>
                    </g>
                </g>
            </g>
        </g>
    </g>
</svg>