<?xml version="1.0" encoding="UTF-8"?>
<svg width="149px" height="86px" viewBox="0 0 149 86" version="1.1" xmlns="http://www.w3.org/2000/svg" xmlns:xlink="http://www.w3.org/1999/xlink">
    <title>79DED399-04B0-4195-83ED-F8A84F1ADADE</title>
    <g id="Page-1" stroke="none" stroke-width="1" fill="none" fill-rule="evenodd">
        <g id="Giving-Opportunities---Donation-form-country-selection-popup" transform="translate(-1259.000000, -432.000000)">
            <g id="Group-14" transform="translate(512.026066, 297.000000)">
                <g id="Group-12" transform="translate(0.000000, 122.000000)">
                    <g id="UK-Flag" transform="translate(747.000000, 13.000000)">
                        <polygon id="Fill-11" fill="#FFFFFF" points="0 86 148 86 148 0 0 0"></polygon>
                        <polygon id="Fill-12" fill="#BD0034" points="144.638377 0 89 32 99.2036692 32 148 3.92879344 148 0"></polygon>
                        <polygon id="Fill-13" fill="#BD0034" points="97 56 148 85 148 79.2035698 107.188582 56"></polygon>
                        <polygon id="Fill-14" fill="#BD0034" points="1 7.66202091 44.7728274 32 55 32 1 2"></polygon>
                        <polygon id="Fill-15" fill="#BD0034" points="51.7504981 57 0 85.5097981 0 86 9.34941645 86 62 57"></polygon>
                        <polygon id="Fill-16" fill="#1A237B" points="87 0 87 29 138 0"></polygon>
                        <polygon id="Fill-17" fill="#1A237B" points="13 0 64 29 64 0"></polygon>
                        <polygon id="Fill-18" fill="#1A237B" points="113 32 148 32 148 12"></polygon>
                        <polygon id="Fill-19" fill="#1A237B" points="113 56 148 76 148 56"></polygon>
                        <polygon id="Fill-20" fill="#1A237B" points="16 86 64 86 64 59"></polygon>
                        <polygon id="Fill-21" fill="#1A237B" points="87 86 135 86 87 59"></polygon>
                        <polygon id="Fill-22" fill="#1A237B" points="1 56 1 77 37 56"></polygon>
                        <polygon id="Fill-23" fill="#1A237B" points="1 32 37 32 1 11"></polygon>
                        <polygon id="Fill-24" fill="#BD0034" points="67.7513855 0 67.7513855 36.1975788 0 36.1975788 0 51.5332278 67.7513855 51.5332278 67.7513855 86 81.4745248 86 81.4745248 51.5332278 148 51.5332278 148 36.1975788 81.4745248 36.1975788 81.4745248 0"></polygon>
                    </g>
                </g>
            </g>
        </g>
    </g>
</svg>