<?xml version="1.0" encoding="UTF-8"?>
<svg width="149px" height="86px" viewBox="0 0 149 86" version="1.1" xmlns="http://www.w3.org/2000/svg" xmlns:xlink="http://www.w3.org/1999/xlink">
    <title>6D0B835F-6345-4E81-9613-55982D78E4CB</title>
    <g id="Page-1" stroke="none" stroke-width="1" fill="none" fill-rule="evenodd">
        <g id="Giving-Opportunities---Donation-form-country-selection-popup" transform="translate(-761.000000, -432.000000)">
            <g id="Group-14" transform="translate(512.026066, 297.000000)">
                <g id="Group-12" transform="translate(0.000000, 122.000000)">
                    <g id="USA-flag" transform="translate(249.000000, 13.000000)">
                        <polygon id="Fill-30" fill="#CB001C" points="0 86 148 86 148 80 0 80"></polygon>
                        <polygon id="Fill-31" fill="#FFFFFF" points="0 78 148 78 148 72 0 72"></polygon>
                        <polygon id="Fill-32" fill="#CB001C" points="0 72 148 72 148 66 0 66"></polygon>
                        <polygon id="Fill-33" fill="#FFFFFF" points="0 66 148 66 148 60 0 60"></polygon>
                        <polygon id="Fill-34" fill="#CB001C" points="0 59 148 59 148 53 0 53"></polygon>
                        <polygon id="Fill-35" fill="#FFFFFF" points="0 53 148 53 148 47 0 47"></polygon>
                        <polygon id="Fill-36" fill="#CB001C" points="0 47 148 47 148 41 0 41"></polygon>
                        <polygon id="Fill-37" fill="#FFFFFF" points="0 39 148 39 148 33 0 33"></polygon>
                        <polygon id="Fill-38" fill="#CB001C" points="0 33 148 33 148 27 0 27"></polygon>
                        <polygon id="Fill-39" fill="#FFFFFF" points="0 26 148 26 148 20 0 20"></polygon>
                        <polygon id="Fill-40" fill="#CB001C" points="0 20 148 20 148 14 0 14"></polygon>
                        <polygon id="Fill-41" fill="#FFFFFF" points="0 14 148 14 148 8 0 8"></polygon>
                        <polygon id="Fill-42" fill="#CB001C" points="0 6 148 6 148 0 0 0"></polygon>
                        <polygon id="Fill-43" fill="#2A3560" points="0 47 68 47 68 0 0 0"></polygon>
                        <polygon id="Fill-44" fill="#FFFFFF" points="6.89435337 5.91570881 5 5.91570881 6.54826958 7.09386973 5.94262295 9 7.49089253 7.82183908 9.03916211 9 8.45173042 7.09386973 10 5.91570881 8.08743169 5.91570881 7.49089253 4"></polygon>
                        <polygon id="Fill-45" fill="#FFFFFF" points="6.89435337 14.9079578 5 14.9079578 6.54826958 16.0824545 5.94262295 18 7.49089253 16.8207095 9.03916211 18 8.45173042 16.0824545 10 14.9079578 8.08743169 14.9079578 7.49089253 13"></polygon>
                        <polygon id="Fill-46" fill="#FFFFFF" points="6.89435337 22.9049904 5 22.9049904 6.54826958 24.0902111 5.94262295 26 7.49089253 24.8195777 9.03916211 26 8.45173042 24.0902111 10 22.9049904 8.08743169 22.9049904 7.49089253 21"></polygon>
                        <polygon id="Fill-47" fill="#FFFFFF" points="6.89435337 29.9157088 5 29.9157088 6.54826958 31.0938697 5.94262295 33 7.49089253 31.8218391 9.03916211 33 8.45173042 31.0938697 10 29.9157088 8.08743169 29.9157088 7.49089253 28"></polygon>
                        <polygon id="Fill-48" fill="#FFFFFF" points="6.89435337 37.9175455 5 37.9175455 6.54826958 39.0872483 5.94262295 41 7.49089253 39.8207095 9.03916211 41 8.45173042 39.0872483 10 37.9175455 8.08743169 37.9175455 7.49089253 36"></polygon>
                        <polygon id="Fill-49" fill="#FFFFFF" points="11.504562 9 12.0748175 10.9109195 14 10.9109195 12.4580292 12.0938697 13.0374088 14 11.504562 12.8266284 9.96259124 14 10.5419708 12.0938697 9 10.9109195 10.9160584 10.9109195"></polygon>
                        <polygon id="Fill-50" fill="#FFFFFF" points="11.504562 16 12.0748175 17.9049904 14 17.9049904 12.4580292 19.0950096 13.0374088 21 11.504562 19.8291747 9.96259124 21 10.5419708 19.0950096 9 17.9049904 10.9160584 17.9049904"></polygon>
                        <polygon id="Fill-51" fill="#FFFFFF" points="11.504562 24 12.0748175 25.9079578 14 25.9079578 12.4580292 27.0920422 13.0374088 29 11.504562 27.8207095 9.96259124 29 10.5419708 27.0920422 9 25.9079578 10.9160584 25.9079578"></polygon>
                        <polygon id="Fill-52" fill="#FFFFFF" points="11.504562 31 12.0748175 32.9116234 14 32.9116234 12.4580292 34.0931796 13.0374088 36 11.504562 34.8136407 9.96259124 36 10.5419708 34.0931796 9 32.9116234 10.9160584 32.9116234"></polygon>
                        <polygon id="Fill-53" fill="#FFFFFF" points="17.4908925 4 18.0874317 5.91091954 20 5.91091954 18.4517304 7.08908046 19.0482696 9 17.4908925 7.82183908 15.9608379 9 16.5482696 7.08908046 15 5.91091954 16.9034608 5.91091954"></polygon>
                        <polygon id="Fill-54" fill="#FFFFFF" points="17.4908925 13 18.0874317 14.903164 20 14.903164 18.4517304 16.0824545 19.0482696 18 17.4908925 16.8159156 15.9608379 18 16.5482696 16.0824545 15 14.903164 16.9034608 14.903164"></polygon>
                        <polygon id="Fill-55" fill="#FFFFFF" points="17.4908925 21 18.0874317 22.9079578 20 22.9079578 18.4517304 24.0872483 19.0482696 26 17.4908925 24.8159156 15.9608379 26 16.5482696 24.0872483 15 22.9079578 16.9034608 22.9079578"></polygon>
                        <polygon id="Fill-56" fill="#FFFFFF" points="17.4908925 28 18.0874317 29.9127517 20 29.9127517 18.4517304 31.0920422 19.0482696 33 17.4908925 31.8255034 15.9608379 33 16.5482696 31.0920422 15 29.9127517 16.9034608 29.9127517"></polygon>
                        <polygon id="Fill-57" fill="#FFFFFF" points="17.4908925 36 18.0874317 37.9175455 20 37.9175455 18.4517304 39.0920422 19.0482696 41 17.4908925 39.8207095 15.9608379 41 16.5482696 39.0920422 15 37.9175455 16.9034608 37.9175455"></polygon>
                        <polygon id="Fill-58" fill="#FFFFFF" points="22.4954545 9 23.0818182 10.9109195 25 10.9109195 23.4454545 12.0938697 24.0409091 14 22.4954545 12.8266284 20.9590909 14 21.5545455 12.0938697 20 10.9109195 21.9090909 10.9109195"></polygon>
                        <polygon id="Fill-59" fill="#FFFFFF" points="22.4954545 16 23.0818182 17.9049904 25 17.9049904 23.4454545 19.0950096 24.0409091 21 22.4954545 19.8291747 20.9590909 21 21.5545455 19.0950096 20 17.9049904 21.9090909 17.9049904"></polygon>
                        <polygon id="Fill-60" fill="#FFFFFF" points="22.4954545 24 23.0818182 25.9079578 25 25.9079578 23.4454545 27.0920422 24.0409091 29 22.4954545 27.8207095 20.9590909 29 21.5545455 27.0920422 20 25.9079578 21.9090909 25.9079578"></polygon>
                        <polygon id="Fill-61" fill="#FFFFFF" points="22.4954545 31 23.0818182 32.9116234 25 32.9116234 23.4454545 34.0931796 24.0409091 36 22.4954545 34.8136407 20.9590909 36 21.5545455 34.0931796 20 32.9116234 21.9090909 32.9116234"></polygon>
                        <polygon id="Fill-62" fill="#FFFFFF" points="28.5 4 29.0987203 5.91091954 31 5.91091954 29.4460695 7.08908046 30.0630713 9 28.5 7.82183908 26.9460695 9 27.535649 7.08908046 26 5.91091954 27.9104205 5.91091954"></polygon>
                        <polygon id="Fill-63" fill="#FFFFFF" points="28.5 13 29.0987203 14.903164 31 14.903164 29.4460695 16.0824545 30.0630713 18 28.5 16.8159156 26.9460695 18 27.535649 16.0824545 26 14.903164 27.9104205 14.903164"></polygon>
                        <polygon id="Fill-64" fill="#FFFFFF" points="28.5 21 29.0987203 22.9079578 31 22.9079578 29.4460695 24.0872483 30.0630713 26 28.5 24.8159156 26.9460695 26 27.535649 24.0872483 26 22.9079578 27.9104205 22.9079578"></polygon>
                        <polygon id="Fill-65" fill="#FFFFFF" points="28.5 28 29.0987203 29.9127517 31 29.9127517 29.4460695 31.0920422 30.0630713 33 28.5 31.8255034 26.9460695 33 27.535649 31.0920422 26 29.9127517 27.9104205 29.9127517"></polygon>
                        <polygon id="Fill-66" fill="#FFFFFF" points="28.5 36 29.0987203 37.9175455 31 37.9175455 29.4460695 39.0920422 30.0630713 41 28.5 39.8207095 26.9460695 41 27.535649 39.0920422 26 37.9175455 27.9104205 37.9175455"></polygon>
                        <polygon id="Fill-67" fill="#FFFFFF" points="32.504562 9 33.0930657 10.9109195 35 10.9109195 33.4580292 12.0938697 34.0374088 14 32.504562 12.8266284 30.9625912 14 31.5419708 12.0938697 30 10.9109195 31.9069343 10.9109195"></polygon>
                        <polygon id="Fill-68" fill="#FFFFFF" points="32.504562 16 33.0930657 17.9049904 35 17.9049904 33.4580292 19.0950096 34.0374088 21 32.504562 19.8291747 30.9625912 21 31.5419708 19.0950096 30 17.9049904 31.9069343 17.9049904"></polygon>
                        <polygon id="Fill-69" fill="#FFFFFF" points="32.504562 24 33.0930657 25.9079578 35 25.9079578 33.4580292 27.0920422 34.0374088 29 32.504562 27.8207095 30.9625912 29 31.5419708 27.0920422 30 25.9079578 31.9069343 25.9079578"></polygon>
                        <polygon id="Fill-70" fill="#FFFFFF" points="32.504562 31 33.0930657 32.9116234 35 32.9116234 33.4580292 34.0931796 34.0374088 36 32.504562 34.8136407 30.9625912 36 31.5419708 34.0931796 30 32.9116234 31.9069343 32.9116234"></polygon>
                        <polygon id="Fill-71" fill="#FFFFFF" points="38.495438 4 39.0930657 5.91091954 41 5.91091954 39.4580292 7.08908046 40.0556569 9 38.495438 7.82183908 36.9625912 9 37.5419708 7.08908046 36 5.91091954 37.9069343 5.91091954"></polygon>
                        <polygon id="Fill-72" fill="#FFFFFF" points="38.495438 13 39.0930657 14.903164 41 14.903164 39.4580292 16.0824545 40.0556569 18 38.495438 16.8159156 36.9625912 18 37.5419708 16.0824545 36 14.903164 37.9069343 14.903164"></polygon>
                        <polygon id="Fill-73" fill="#FFFFFF" points="38.495438 21 39.0930657 22.9079578 41 22.9079578 39.4580292 24.0872483 40.0556569 26 38.495438 24.8159156 36.9625912 26 37.5419708 24.0872483 36 22.9079578 37.9069343 22.9079578"></polygon>
                        <polygon id="Fill-74" fill="#FFFFFF" points="38.495438 28 39.0930657 29.9127517 41 29.9127517 39.4580292 31.0920422 40.0556569 33 38.495438 31.8255034 36.9625912 33 37.5419708 31.0920422 36 29.9127517 37.9069343 29.9127517"></polygon>
                        <polygon id="Fill-75" fill="#FFFFFF" points="38.495438 36 39.0930657 37.9175455 41 37.9175455 39.4580292 39.0920422 40.0556569 41 38.495438 39.8207095 36.9625912 41 37.5419708 39.0920422 36 37.9175455 37.9069343 37.9175455"></polygon>
                        <polygon id="Fill-76" fill="#FFFFFF" points="44.4908925 9 45.0783242 10.9109195 47 10.9109195 45.4517304 12.0938697 46.0391621 14 44.4908925 12.8266284 42.9517304 14 43.5482696 12.0938697 42 10.9109195 43.9125683 10.9109195"></polygon>
                        <polygon id="Fill-77" fill="#FFFFFF" points="44.4908925 16 45.0783242 17.9049904 47 17.9049904 45.4517304 19.0950096 46.0391621 21 44.4908925 19.8291747 42.9517304 21 43.5482696 19.0950096 42 17.9049904 43.9125683 17.9049904"></polygon>
                        <polygon id="Fill-78" fill="#FFFFFF" points="44.4908925 24 45.0783242 25.9079578 47 25.9079578 45.4517304 27.0920422 46.0391621 29 44.4908925 27.8207095 42.9517304 29 43.5482696 27.0920422 42 25.9079578 43.9125683 25.9079578"></polygon>
                        <polygon id="Fill-79" fill="#FFFFFF" points="44.4908925 31 45.0783242 32.9116234 47 32.9116234 45.4517304 34.0931796 46.0391621 36 44.4908925 34.8136407 42.9517304 36 43.5482696 34.0931796 42 32.9116234 43.9125683 32.9116234"></polygon>
                        <polygon id="Fill-80" fill="#FFFFFF" points="49.495438 4 50.0930657 5.91091954 52 5.91091954 50.4580292 7.08908046 51.0374088 9 49.495438 7.82183908 47.9625912 9 48.5419708 7.08908046 47 5.91091954 48.9069343 5.91091954"></polygon>
                        <polygon id="Fill-81" fill="#FFFFFF" points="49.495438 13 50.0930657 14.903164 52 14.903164 50.4580292 16.0824545 51.0374088 18 49.495438 16.8159156 47.9625912 18 48.5419708 16.0824545 47 14.903164 48.9069343 14.903164"></polygon>
                        <polygon id="Fill-82" fill="#FFFFFF" points="49.495438 21 50.0930657 22.9079578 52 22.9079578 50.4580292 24.0872483 51.0374088 26 49.495438 24.8159156 47.9625912 26 48.5419708 24.0872483 47 22.9079578 48.9069343 22.9079578"></polygon>
                        <polygon id="Fill-83" fill="#FFFFFF" points="49.495438 28 50.0930657 29.9127517 52 29.9127517 50.4580292 31.0920422 51.0374088 33 49.495438 31.8255034 47.9625912 33 48.5419708 31.0920422 47 29.9127517 48.9069343 29.9127517"></polygon>
                        <polygon id="Fill-84" fill="#FFFFFF" points="49.495438 36 50.0930657 37.9175455 52 37.9175455 50.4580292 39.0920422 51.0374088 41 49.495438 39.8207095 47.9625912 41 48.5419708 39.0920422 47 37.9175455 48.9069343 37.9175455"></polygon>
                        <polygon id="Fill-85" fill="#FFFFFF" points="55.5 9 56.0804388 10.9109195 58 10.9109195 56.464351 12.0938697 57.035649 14 55.5 12.8266284 53.9369287 14 54.535649 12.0938697 53 10.9109195 54.9012797 10.9109195"></polygon>
                        <polygon id="Fill-86" fill="#FFFFFF" points="55.5 16 56.0804388 17.9049904 58 17.9049904 56.464351 19.0950096 57.035649 21 55.5 19.8291747 53.9369287 21 54.535649 19.0950096 53 17.9049904 54.9012797 17.9049904"></polygon>
                        <polygon id="Fill-87" fill="#FFFFFF" points="55.5 24 56.0804388 25.9079578 58 25.9079578 56.464351 27.0920422 57.035649 29 55.5 27.8207095 53.9369287 29 54.535649 27.0920422 53 25.9079578 54.9012797 25.9079578"></polygon>
                        <polygon id="Fill-88" fill="#FFFFFF" points="55.5 31 56.0804388 32.9116234 58 32.9116234 56.464351 34.0931796 57.035649 36 55.5 34.8136407 53.9369287 36 54.535649 34.0931796 53 32.9116234 54.9012797 32.9116234"></polygon>
                        <polygon id="Fill-89" fill="#FFFFFF" points="60.495438 4 61.1021898 5.91091954 63 5.91091954 61.4580292 7.08908046 62.0556569 9 60.495438 7.82183908 58.9625912 9 59.5419708 7.08908046 58 5.91091954 59.9069343 5.91091954"></polygon>
                        <polygon id="Fill-90" fill="#FFFFFF" points="60.495438 13 61.1021898 14.903164 63 14.903164 61.4580292 16.0824545 62.0556569 18 60.495438 16.8159156 58.9625912 18 59.5419708 16.0824545 58 14.903164 59.9069343 14.903164"></polygon>
                        <polygon id="Fill-91" fill="#FFFFFF" points="60.495438 21 61.1021898 22.9079578 63 22.9079578 61.4580292 24.0872483 62.0556569 26 60.495438 24.8159156 58.9625912 26 59.5419708 24.0872483 58 22.9079578 59.9069343 22.9079578"></polygon>
                        <polygon id="Fill-92" fill="#FFFFFF" points="60.495438 28 61.1021898 29.9127517 63 29.9127517 61.4580292 31.0920422 62.0556569 33 60.495438 31.8255034 58.9625912 33 59.5419708 31.0920422 58 29.9127517 59.9069343 29.9127517"></polygon>
                        <polygon id="Fill-93" fill="#FFFFFF" points="60.495438 36 61.1021898 37.9175455 63 37.9175455 61.4580292 39.0920422 62.0556569 41 60.495438 39.8207095 58.9625912 41 59.5419708 39.0920422 58 37.9175455 59.9069343 37.9175455"></polygon>
                    </g>
                </g>
            </g>
        </g>
    </g>
</svg>