<?xml version="1.0" encoding="UTF-8"?>
<svg width="48px" height="48px" viewBox="0 0 48 48" version="1.1" xmlns="http://www.w3.org/2000/svg" xmlns:xlink="http://www.w3.org/1999/xlink">
    <title>Icons / Youtube</title>
    <g id="Page-1" stroke="none" stroke-width="1" fill="none" fill-rule="evenodd">
        <g id="Giving-Opportunities---Stories-detail-page-(-Opt-1-)" transform="translate(-376.000000, -3183.000000)">
            <g id="Group-2" transform="translate(0.000000, 2758.000000)">
                <g id="Group-16" transform="translate(0.000000, 48.000000)">
                    <g id="Icons-/-Youtube" transform="translate(376.000000, 377.000000)">
                        <circle id="Oval" fill="#8C191C" fill-rule="nonzero" cx="24" cy="24" r="24"></circle>
                        <path d="M36.9825,20.22 C36.79875,17.68875 36.3375,15.075 33.10125,14.88375 C27.0374229,14.5380562 20.9588271,14.5380562 14.895,14.88375 C11.65875,15.07125 11.1975,17.68875 11.01375,20.22 C10.825327,22.7364779 10.825327,25.2635221 11.01375,27.78 C11.1975,30.31125 11.65875,32.925 14.895,33.11625 C20.9588271,33.4619438 27.0374229,33.4619438 33.10125,33.11625 C36.3375,32.92875 36.79875,30.31125 36.9825,27.78 C37.170923,25.2635221 37.170923,22.7364779 36.9825,20.22 L36.9825,20.22 Z M21.375,27.375 L21.375,19.875 L28.5,23.625 L21.375,27.375 Z" id="Shape" fill="#FFFFFF"></path>
                    </g>
                </g>
            </g>
        </g>
    </g>
</svg>